SplineFontDB: 3.0
FontName: Oxygen-Bold
FullName: Oxygen Bold
FamilyName: Oxygen Bold
Weight: Bold
Copyright: vernon adams 2012
Version: webfont 0.2.2
ItalicAngle: 0
UnderlinePosition: 0
UnderlineWidth: 0
Ascent: 1638
Descent: 410
UFOAscent: 1501
UFODescent: -410
LayerCount: 2
Layer: 0 0 "Back"  1
Layer: 1 0 "Fore"  0
NeedsXUIDChange: 1
FSType: 0
OS2Version: 0
OS2_WeightWidthSlopeOnly: 0
OS2_UseTypoMetrics: 0
CreationTime: 1336132040
ModificationTime: 1336134395
PfmFamily: 33
TTFWeight: 700
TTFWidth: 5
LineGap: 0
VLineGap: 0
OS2TypoAscent: 1901
OS2TypoAOffset: 0
OS2TypoDescent: -483
OS2TypoDOffset: 0
OS2TypoLinegap: 0
OS2WinAscent: 1901
OS2WinAOffset: 0
OS2WinDescent: 483
OS2WinDOffset: 0
HheadAscent: 1901
HheadAOffset: 0
HheadDescent: -483
HheadDOffset: 0
OS2SubXSize: 0
OS2SubYSize: 0
OS2SubXOff: 0
OS2SubYOff: 0
OS2SupXSize: 0
OS2SupYSize: 0
OS2SupXOff: 0
OS2SupYOff: 0
OS2StrikeYSize: 0
OS2StrikeYPos: 0
OS2Vendor: 'newt'
Lookup: 4 0 1 "'liga' Standard Ligatures lookup 0"  {"'liga' Standard Ligatures lookup 0-1"  } ['liga' ('DFLT' <'dflt' > 'grek' <'dflt' > 'latn' <'dflt' > ) ]
Lookup: 258 0 0 "'kern' Horizontal Kerning in Latin lookup 0"  {"'kern' Horizontal Kerning in Latin lookup 0 subtable"  "'kern' Horizontal Kerning lookup 1 kerning class 1"  } ['kern' ('DFLT' <'dflt' > 'latn' <'dflt' > ) ]
MarkAttachClasses: 1
DEI: 91125
KernClass2: 30 24 "'kern' Horizontal Kerning lookup 1 kerning class 1" 
 81 A Aacute Abreve Acircumflex Adieresis Agrave Amacron Aogonek Aring Atilde uni0202
 1 B
 75 D Eth O Oacute Ocircumflex Odieresis Ograve Oslash Otilde Q uni020C uni020E
 1 F
 1 K
 1 L
 1 P
 44 R Racute Rcaron Rcommaaccent uni0210 uni0212
 22 T Tcommaaccent uni021A
 45 U Uacute Ucircumflex Udieresis Ugrave uni0216
 1 V
 1 W
 18 Y Yacute Ydieresis
 1 a
 69 b o oacute ocircumflex odieresis ograve oslash otilde p thorn uni020F
 1 c
 1 d
 1 e
 1 f
 24 h hbar m n nacute ntilde
 27 k kcommaaccent kgreenlandic
 1 l
 10 quoteright
 29 r rcaron rcommaaccent uni0213

StartChar: A
Encoding: 33 65 0
Width: 1359
VWidth: 0
Flags: W
HStem: 0 21G<-3 287.053 1077 1362> 414 202<494 870> 1446 20G<528.647 838.244>
DStem2: -3 0 280 0 0.345082 0.938572<97.6583 536.609 749.667 1343.29> 831 1466 870 616 0.340558 -0.940223<221.499 812.472 1025.9 1464.53>
LayerCount: 2
Fore
SplineSet
494 616 m 1
 870 616 l 1
 870 616 690 1193 685 1212 c 1
 680 1196 494 616 494 616 c 1
-3 0 m 1
 536 1466 l 1
 831 1466 l 1
 1362 0 l 1
 1084 0 l 1
 939 414 l 1
 426 414 l 1
 280 0 l 1
 -3 0 l 1
EndSplineSet
EndChar

StartChar: AE
Encoding: 132 198 1
Width: 2021
VWidth: 0
Flags: W
HStem: 0 196<1361 1912> 375 197<638 1053> 655 196<1322 1851> 1285 196<1269 1876>
DStem2: 38 0 340 0 0.495128 0.86882<149.529 576.837 794.042 1200.84> 1269 1285 1003 1235 0.077499 -0.996992<29.2349 435.252 632.213 694.116 891.763 1092.85>
LayerCount: 2
Fore
SplineSet
638 572 m 1
 1053 572 l 1
 1003 1235 l 1
 638 572 l 1
38 0 m 1
 882 1481 l 1
 1891 1481 l 1
 1876 1285 l 1
 1269 1285 l 1
 1302 851 l 1
 1851 851 l 1
 1851 655 l 1
 1322 655 l 1
 1361 196 l 1
 1926 196 l 1
 1912 0 l 1
 1099 0 l 1
 1069 375 l 1
 545 375 l 1
 340 0 l 1
 38 0 l 1
EndSplineSet
EndChar

StartChar: B
Encoding: 34 66 11
Width: 1333
VWidth: 0
Flags: W
HStem: 0 196<429 864.542> 671 189<429 851.537> 1266 199<429 849.789>
VStem: 158 271<196 671 860 1266> 930 262<933.229 1193.18> 976 277<290.804 585.892>
LayerCount: 2
Fore
SplineSet
429 860 m 1xf8
 661 860 l 2
 836 860 930 922 930 1065 c 0
 930 1226 819 1266 606 1266 c 2
 429 1266 l 1
 429 860 l 1xf8
429 196 m 1
 664 196 l 2
 869 196 976 272 976 440 c 0xf4
 976 607 870 671 657 671 c 2
 429 671 l 1
 429 196 l 1
158 0 m 1
 158 1465 l 1
 615 1465 l 2
 990 1465 1192 1369 1192 1097 c 0xf8
 1192 1004 1164 843 973 782 c 1
 1156 737 1253 605 1253 425 c 0
 1253 145 1041 0 701 0 c 2
 158 0 l 1
EndSplineSet
EndChar

StartChar: C
Encoding: 35 67 12
Width: 1301
VWidth: 0
Flags: W
HStem: -21 220<618.903 1068.61> 1267 219<623.97 1042.65>
VStem: 100 280<465.269 990.784>
LayerCount: 2
Fore
SplineSet
797 -21 m 0
 372 -21 100 261 100 739 c 0
 100 1192 389 1486 811 1486 c 0
 965 1486 1116 1454 1246 1367 c 1
 1161 1162 l 1
 1063 1222 957 1267 817 1267 c 0
 546 1267 380 1055 380 731 c 0
 380 393 537 199 817 199 c 0
 937 199 1062 230 1182 291 c 1
 1218 79 l 1
 1090 3 950 -21 797 -21 c 0
EndSplineSet
EndChar

StartChar: D
Encoding: 36 68 18
Width: 1514
VWidth: 0
Flags: W
HStem: 0 217<430 868.143> 1247 218<430 866.255>
VStem: 159 271<217 1247> 1137 278<489.134 990.456>
LayerCount: 2
Fore
SplineSet
159 0 m 1
 159 1465 l 1
 583 1465 l 2
 1090 1465 1415 1235 1415 738 c 0
 1415 259 1108 0 608 0 c 2
 159 0 l 1
430 217 m 1
 624 217 l 2
 958 217 1137 396 1137 732 c 0
 1137 1099 950 1247 595 1247 c 2
 430 1247 l 1
 430 217 l 1
EndSplineSet
EndChar

StartChar: E
Encoding: 37 69 20
Width: 1152
VWidth: 0
Flags: W
HStem: 0 216<429 1048> 657 215<429 1005> 1250 215<429 1035>
VStem: 158 271<216 657 872 1250>
LayerCount: 2
Fore
SplineSet
158 0 m 1
 158 1465 l 1
 1046 1465 l 1
 1035 1250 l 1
 429 1250 l 1
 429 872 l 1
 1005 872 l 1
 1005 657 l 1
 429 657 l 1
 429 216 l 1
 1057 216 l 1
 1048 0 l 1
 158 0 l 1
EndSplineSet
EndChar

StartChar: Eth
Encoding: 142 208 29
Width: 1524
VWidth: 0
Flags: W
HStem: 1 205<398 874.627> 650 179<6 131 398 597> 1256 207<398 869.12>
VStem: 131 267<206 650 829 1256> 1171 270<487.472 978.119>
LayerCount: 2
Fore
SplineSet
131 1 m 1
 131 650 l 1
 6 650 l 1
 6 829 l 1
 131 829 l 1
 131 1463 l 1
 522 1463 l 2
 1066 1463 1441 1271 1441 729 c 0
 1441 251 1106 1 617 1 c 2
 131 1 l 1
398 206 m 1
 633 206 l 2
 977 206 1171 390 1171 725 c 0
 1171 1128 951 1256 542 1256 c 2
 398 1256 l 1
 398 829 l 1
 597 829 l 1
 597 650 l 1
 398 650 l 1
 398 206 l 1
EndSplineSet
EndChar

StartChar: Euro
Encoding: 396 8364 30
Width: 1210
VWidth: 0
Flags: W
HStem: -20 192<634.528 989.848> 515 152<104 197 446 963> 811 147<105 200 451 993> 1301 174<641.515 970.235>
VStem: 198 228<667.096 811>
LayerCount: 2
Fore
SplineSet
773 -20 m 0
 422 -20 263 233 217 515 c 1
 81 515 l 1
 104 667 l 1
 197 667 l 1
 197 671 198 726 198 730 c 0
 198 740 200 801 200 811 c 1
 78 811 l 1
 105 957 l 1
 223 957 l 1
 281 1242 462 1475 800 1475 c 0
 936 1475 1047 1431 1131 1347 c 1
 1084 1152 l 1
 1013 1252 911 1301 808 1301 c 0
 628 1301 477 1166 451 958 c 1
 1019 958 l 1
 993 811 l 1
 426 811 l 1
 425 799 424 667 423 667 c 2
 984 667 l 1
 963 515 l 1
 446 515 l 1
 485 300 620 172 802 172 c 0
 904 172 1014 213 1114 294 c 1
 1113 86 l 1
 1019 20 914 -20 773 -20 c 0
EndSplineSet
EndChar

StartChar: F
Encoding: 38 70 31
Width: 1103
VWidth: 0
Flags: W
HStem: 0 21G<158 427> 621 213<427 986> 1250 215<427 1015>
VStem: 158 269<0 621 834 1250>
LayerCount: 2
Fore
SplineSet
158 0 m 1
 158 1465 l 1
 1025 1465 l 1
 1015 1250 l 1
 427 1250 l 1
 427 834 l 1
 986 834 l 1
 986 621 l 1
 427 621 l 1
 427 0 l 1
 158 0 l 1
EndSplineSet
EndChar

StartChar: G
Encoding: 39 71 32
Width: 1466
VWidth: 0
Flags: W
HStem: -21 220<617.02 1075.09> 583 213<773 1078> 1267 219<644.331 1098.54>
VStem: 100 280<469.762 982.624> 1078 255<227.843 583>
LayerCount: 2
Fore
SplineSet
812 -21 m 0
 363 -21 100 269 100 734 c 0
 100 1180 376 1486 851 1486 c 0
 1025 1486 1178 1450 1309 1371 c 1
 1221 1169 l 1
 1117 1225 991 1267 856 1267 c 0
 559 1267 380 1061 380 731 c 0
 380 412 526 199 824 199 c 0
 919 199 1008 216 1078 243 c 1
 1078 583 l 1
 771 583 l 1
 773 796 l 1
 1333 796 l 1
 1333 89 l 1
 1163 19 1011 -21 812 -21 c 0
EndSplineSet
EndChar

StartChar: H
Encoding: 40 72 37
Width: 1520
VWidth: 0
Flags: W
HStem: 0 21G<158 429 1091 1362> 652 214<429 1091> 1445 20G<158 429 1091 1362>
VStem: 158 271<0 652 866 1465> 1091 271<0 652 866 1465>
LayerCount: 2
Fore
SplineSet
158 0 m 1
 158 1465 l 1
 429 1465 l 1
 429 866 l 1
 1091 866 l 1
 1091 1465 l 1
 1362 1465 l 1
 1362 0 l 1
 1091 0 l 1
 1091 652 l 1
 429 652 l 1
 429 0 l 1
 158 0 l 1
EndSplineSet
EndChar

StartChar: Hbar
Encoding: 224 294 38
Width: 1491
VWidth: 0
Flags: W
HStem: 0 21G<131 398 1095 1363> 658 195<398 1095> 1178 132<45 131 398 1095 1363 1449> 1438 20G<131 398 1095 1363>
VStem: 131 267<0 658 853 1178 1310 1458> 1095 268<0 658 853 1178 1310 1458>
LayerCount: 2
Fore
SplineSet
398 853 m 1
 1095 853 l 1
 1095 1178 l 1
 398 1178 l 1
 398 853 l 1
131 0 m 1
 131 1178 l 1
 45 1178 l 1
 45 1310 l 1
 131 1310 l 1
 131 1458 l 1
 398 1458 l 1
 398 1310 l 1
 1095 1310 l 1
 1095 1458 l 1
 1363 1458 l 1
 1363 1310 l 1
 1449 1310 l 1
 1449 1178 l 1
 1363 1178 l 1
 1363 0 l 1
 1095 0 l 1
 1095 658 l 1
 398 658 l 1
 398 0 l 1
 131 0 l 1
EndSplineSet
EndChar

StartChar: I
Encoding: 41 73 40
Width: 602
VWidth: 0
Flags: W
HStem: 0 21G<165 436> 1445 20G<165 436>
VStem: 165 271<0 1465>
LayerCount: 2
Fore
SplineSet
165 0 m 1
 165 1465 l 1
 436 1465 l 1
 436 0 l 1
 165 0 l 1
EndSplineSet
EndChar

StartChar: J
Encoding: 42 74 51
Width: 633
VWidth: 0
Flags: W
HStem: -329 213<-73 157.439> 1449 20G<210 482>
VStem: 210 272<-64.9062 1469>
LayerCount: 2
Fore
SplineSet
-73 -321 m 1
 -84 -108 l 1
 -54 -113 -7 -116 21 -116 c 0
 176 -116 210 -35 210 129 c 2
 210 1469 l 1
 482 1469 l 1
 482 147 l 2
 482 -179 372 -329 22 -329 c 0
 -10 -329 -48 -326 -73 -321 c 1
EndSplineSet
EndChar

StartChar: K
Encoding: 43 75 53
Width: 1348
VWidth: 0
Flags: W
HStem: 0 21G<157 429 1004.45 1337> 1445 20G<157 429 916.5 1302>
VStem: 157 272<0 563 805 1465> 981 321<1144 1465> 1019 318<0 318>
DStem2: 429 805 748 806 0.643492 0.765453<206.039 860.406> 748 806 541 657 0.590017 -0.807391<0 810.652>
LayerCount: 2
Fore
SplineSet
157 0 m 1xe8
 157 1465 l 1
 429 1465 l 1
 429 805 l 1
 553 969 852 1306 981 1465 c 1
 1302 1465 l 1xf0
 748 806 l 1
 1337 0 l 1
 1019 0 l 1
 541 657 l 1
 429 563 l 1
 429 0 l 1
 157 0 l 1xe8
EndSplineSet
EndChar

StartChar: L
Encoding: 44 76 55
Width: 1071
VWidth: 0
Flags: W
HStem: 0 216<429 1034> 1445 20G<158 429>
VStem: 158 271<216 1465>
LayerCount: 2
Fore
SplineSet
158 0 m 1
 158 1465 l 1
 429 1465 l 1
 429 216 l 1
 1042 216 l 1
 1034 0 l 1
 158 0 l 1
EndSplineSet
EndChar

StartChar: Lslash
Encoding: 248 321 59
Width: 1012
VWidth: 0
Flags: W
HStem: 0 202<399 1003> 930 186<536 722>
VStem: 131 268<202 589 932 1463>
DStem2: -20 685 131 589 0.864707 0.502276<0 82.3523 486.375 764.67>
LayerCount: 2
Fore
SplineSet
131 0 m 1
 131 589 l 1
 -20 500 l 1
 -20 685 l 1
 131 774 l 1
 131 1463 l 1
 399 1463 l 1
 399 932 l 1
 722 1116 l 1
 722 930 l 1
 399 746 l 1
 399 202 l 1
 1018 202 l 1
 1003 0 l 1
 131 0 l 1
EndSplineSet
EndChar

StartChar: M
Encoding: 45 77 60
Width: 1841
VWidth: 0
Flags: W
HStem: 0 21G<158 402 1433 1683> 1445 20G<158 486.374 1358.57 1683>
VStem: 158 244<0 1144> 1433 250<0 1139>
DStem2: 478 1465 393 1144 0.386224 -0.922405<263.263 1147>
LayerCount: 2
Fore
SplineSet
158 0 m 1
 158 1465 l 1
 478 1465 l 1
 921 407 l 1
 1367 1465 l 1
 1683 1465 l 1
 1683 0 l 1
 1433 0 l 1
 1433 724 l 1
 1441 1139 l 1
 1404 1029 l 1
 1029 100 l 1
 797 100 l 1
 430 1034 l 1
 393 1144 l 1
 402 720 l 1
 402 0 l 1
 158 0 l 1
EndSplineSet
EndChar

StartChar: N
Encoding: 46 78 61
Width: 1554
VWidth: 0
Flags: W
HStem: 0 21G<158 404 1092.17 1397> 1445 20G<158 515.5 1150 1397>
VStem: 158 246<0 1109> 1150 247<368 1465>
DStem2: 446 1465 396 1109 0.538644 -0.842533<273.01 1307.24>
LayerCount: 2
Fore
SplineSet
158 0 m 1
 158 1465 l 1
 446 1465 l 1
 585 1248 915 739 1054 523 c 0
 1084 477 1127 414 1157 368 c 1
 1157 368 1150 711 1150 724 c 2
 1150 1465 l 1
 1397 1465 l 1
 1397 0 l 1
 1105 0 l 1
 444 1030 l 1
 396 1109 l 1
 397 1076 404 768 404 738 c 2
 404 0 l 1
 158 0 l 1
EndSplineSet
EndChar

StartChar: O
Encoding: 47 79 66
Width: 1626
VWidth: 0
Flags: W
HStem: -21 221<616.808 1009.94> 1268 218<618.236 1010.22>
VStem: 99 284<465.284 1000.44> 1244 283<456.13 999.832>
LayerCount: 2
Fore
SplineSet
813 -21 m 0
 373 -21 99 260 99 733 c 0
 99 1211 376 1486 814 1486 c 0
 1252 1486 1527 1208 1527 732 c 0
 1527 262 1252 -21 813 -21 c 0
814 200 m 0
 1104 200 1244 400 1244 730 c 0
 1244 1064 1103 1268 815 1268 c 0
 526 1268 383 1063 383 730 c 0
 383 401 524 200 814 200 c 0
EndSplineSet
EndChar

StartChar: OE
Encoding: 262 338 67
Width: 2176
VWidth: 0
Flags: W
HStem: -19 207<619.257 1048.03> 4 205<1425 2113> 661 202<1425 2052> 1256 205<1425 2083> 1283 207<621.875 1039.64>
VStem: 81 262<483.721 973.038> 1168 257<271.18 661 863 1189.72>
LayerCount: 2
Fore
SplineSet
813 188 m 0xae
 973 188 1100 243 1168 305 c 1
 1168 1153 l 1
 1093 1228 974 1283 811 1283 c 0
 507 1283 345 1021 343 735 c 1
 343 447 494 189 813 188 c 0xae
815 -19 m 0
 382 -19 81 298 81 738 c 1
 83 1173 394 1490 809 1490 c 0xae
 953 1490 1074 1448 1168 1384 c 1
 1168 1461 l 1
 2101 1461 l 1
 2083 1256 l 1
 1425 1256 l 1
 1425 863 l 1
 2052 863 l 1
 2052 661 l 1
 1425 661 l 1
 1425 209 l 1
 2130 209 l 1
 2113 4 l 1
 1168 4 l 1x76
 1168 85 l 1
 1082 25 951 -19 815 -19 c 0
EndSplineSet
EndChar

StartChar: Oslash
Encoding: 150 216 75
Width: 1624
VWidth: 0
Flags: W
HStem: -21 212<659.091 1024.15> 1271 214<605.202 981.438>
VStem: 84 272<461.833 995.317> 1274 269<464.27 994.917>
DStem2: 370 -169 470 -211 0.401396 0.915904<1.67165 243.045 467.984 1533.54 1762.27 1994.7>
LayerCount: 2
Fore
SplineSet
815 191 m 0
 1122 191 1274 404 1274 726 c 0
 1274 935 1211 1101 1085 1192 c 1
 657 213 l 1
 704 198 756 191 815 191 c 0
557 260 m 1
 984 1244 l 1
 934 1261 878 1271 815 1271 c 0
 509 1271 356 1051 356 726 c 0
 356 514 424 348 557 260 c 1
470 -211 m 1
 370 -169 l 1
 466 52 l 1
 230 164 84 401 84 730 c 0
 84 1204 387 1485 816 1485 c 0
 908 1485 994 1472 1073 1447 c 1
 1166 1660 l 1
 1272 1619 l 1
 1179 1404 l 1
 1404 1288 1543 1054 1543 730 c 0
 1543 264 1242 -21 812 -21 c 0
 725 -21 643 -9 568 13 c 1
 470 -211 l 1
EndSplineSet
EndChar

StartChar: P
Encoding: 48 80 77
Width: 1245
VWidth: 0
Flags: W
HStem: 0 21G<151 418> 556 196<418 821.706> 1267 202<418 829.549>
VStem: 151 267<0 564 754 1267> 939 262<853.586 1165.38>
LayerCount: 2
Fore
SplineSet
610 752 m 0
 898 752 939 892 939 1020 c 0
 939 1183 828 1267 641 1267 c 2
 418 1267 l 1
 418 754 l 1
 430 752 593 752 610 752 c 0
151 0 m 1
 151 1469 l 1
 639 1469 l 2
 976 1469 1201 1338 1201 1029 c 0
 1201 765 1076 556 639 556 c 0
 624 556 482 558 418 564 c 1
 418 0 l 1
 151 0 l 1
EndSplineSet
EndChar

StartChar: Q
Encoding: 49 81 78
Width: 1626
VWidth: 0
Flags: W
HStem: -21 221<616.808 904.259> 1268 218<618.236 1010.22>
VStem: 99 284<465.284 1000.44> 1244 283<458.77 999.832>
LayerCount: 2
Fore
SplineSet
814 200 m 0
 1104 200 1244 400 1244 730 c 0
 1244 1064 1103 1268 815 1268 c 0
 526 1268 383 1063 383 730 c 0
 383 401 524 200 814 200 c 0
1252 -478 m 1
 1135 -393 975 -169 894 -17 c 1
 868 -19 841 -21 813 -21 c 0
 373 -21 99 260 99 733 c 0
 99 1211 376 1486 814 1486 c 0
 1252 1486 1527 1208 1527 732 c 0
 1527 393 1384 151 1140 43 c 1
 1187 -33 1287 -199 1426 -327 c 1
 1252 -478 l 1
EndSplineSet
EndChar

StartChar: R
Encoding: 50 82 79
Width: 1394
VWidth: 0
Flags: W
HStem: 0 21G<151 419 1041.07 1346> 628 196<419 773.725> 1268 201<419 928.25>
VStem: 151 268<0 630 825 1268> 1010 249<904.139 1190.32>
DStem2: 1346 0 1050 0 0.420984 -0.907068<-759.876 -124.611>
LayerCount: 2
Fore
SplineSet
718 824 m 0
 928 824 1010 895 1010 1058 c 0
 1010 1202 919 1268 730 1268 c 2
 419 1268 l 1
 419 825 l 1
 450 825 687 824 718 824 c 0
151 0 m 1
 151 1469 l 1
 694 1469 l 2
 1040 1469 1259 1399 1259 1062 c 0
 1259 865 1164 737 994 678 c 1
 1042 623 1085 540 1128 452 c 2
 1346 0 l 1
 1050 0 l 1
 879 383 l 1
 841 464 767 614 759 627 c 1
 742 628 687 628 646 628 c 0
 641 628 419 630 419 630 c 1
 419 0 l 1
 151 0 l 1
EndSplineSet
EndChar

StartChar: S
Encoding: 51 83 83
Width: 1189
VWidth: 0
Flags: W
HStem: -20 221<326.466 756.454> 1272 219<445.339 878.835>
VStem: 101 280<974.609 1207.11> 841 275<279.733 528.039>
DStem2: 502 929 396 688 0.960564 -0.278058<-111.952 393.634>
LayerCount: 2
Fore
SplineSet
569 -20 m 0
 372 -20 218 30 94 102 c 1
 160 317 l 1
 279 251 434 201 580 201 c 0
 755 201 841 280 841 416 c 0
 841 515 771 574 657 607 c 1
 609 622 447 667 396 688 c 1
 217 751 101 870 101 1076 c 0
 101 1348 315 1491 618 1491 c 0
 796 1491 943 1457 1075 1382 c 1
 993 1184 l 1
 893 1229 761 1272 629 1272 c 0
 474 1272 387 1224 381 1088 c 1
 381 1005 426 952 502 929 c 1
 545 913 667 876 742 851 c 0
 1005 765 1116 651 1116 414 c 0
 1116 130 896 -20 569 -20 c 0
EndSplineSet
EndChar

StartChar: T
Encoding: 52 84 88
Width: 1152
VWidth: 0
Flags: W
HStem: 0 21G<441 713> 1248 217<14 441 713 1138>
VStem: 441 272<0 1248>
LayerCount: 2
Fore
SplineSet
441 0 m 1
 441 1248 l 1
 14 1248 l 1
 14 1465 l 1
 1138 1465 l 1
 1138 1248 l 1
 713 1248 l 1
 713 0 l 1
 441 0 l 1
EndSplineSet
EndChar

StartChar: Thorn
Encoding: 156 222 91
Width: 1327
VWidth: 0
Flags: W
HStem: 337 197<401 929.565> 1052 177<400 933.647>
VStem: 178 222<11 339 534 1052 1229 1454> 1050 224<645.537 945.704>
LayerCount: 2
Fore
SplineSet
401 534 m 1
 737 534 l 2
 936 534 1050 629 1050 793 c 0
 1050 977 931 1052 710 1052 c 2
 400 1052 l 1
 401 534 l 1
178 11 m 1
 178 1454 l 1
 400 1454 l 1
 400 1229 l 1
 687 1229 l 2
 1023 1229 1274 1108 1274 785 c 0
 1274 494 1040 337 724 337 c 0
 722 337 400 339 400 339 c 1
 400 11 l 1
 178 11 l 1
EndSplineSet
EndChar

StartChar: U
Encoding: 53 85 92
Width: 1468
VWidth: 0
Flags: W
HStem: -21 220<542.679 928.748> 1445 20G<144 416 1052 1323>
VStem: 144 272<336.014 1465> 1052 271<335.002 1465>
LayerCount: 2
Fore
SplineSet
730 -21 m 0
 340 -21 144 185 144 527 c 2
 144 1465 l 1
 416 1465 l 1
 416 550 l 2
 416 309 505 199 735 199 c 0
 960 199 1052 309 1052 551 c 2
 1052 1465 l 1
 1323 1465 l 1
 1323 525 l 2
 1323 185 1120 -21 730 -21 c 0
EndSplineSet
EndChar

StartChar: V
Encoding: 54 86 103
Width: 1321
VWidth: 0
Flags: W
HStem: 0 21G<519.724 808.181> 1445 20G<-6 279.851 1038.5 1327>
DStem2: 583 560 -6 1465 0.341898 -0.939737<-560.188 286.805> 273 1465 -6 1465 0.341898 -0.939737<0 1241.75> 746 558 801 0 0.337923 0.941174<-283.197 956.711>
LayerCount: 2
Fore
SplineSet
527 0 m 1
 -6 1465 l 1
 273 1465 l 1
 583 560 l 1
 594 531 658 313 666 285 c 1
 669 298 731 518 746 558 c 1
 772 633 1026 1394 1051 1465 c 1
 1327 1465 l 1
 801 0 l 1
 527 0 l 1
EndSplineSet
EndChar

StartChar: W
Encoding: 55 87 104
Width: 2051
VWidth: 0
Flags: W
HStem: 0 21G<402.567 693.393 1337.17 1629.6> 1438 20G<892.104 1162.58> 1445 20G<10 284.982 1758.93 2034>
VStem: 10 270<1195 1465> 1764 270<1195 1465>
DStem2: 280 1465 10 1465 0.26217 -0.965022<0 1174.58> 564 325 687 0 0.282762 0.95919<0 849.241> 1157 1458 1030 1073 0.268561 -0.963263<336.749 1180.36>
LayerCount: 2
Fore
SplineSet
408 0 m 1xb8
 10 1465 l 1
 280 1465 l 1xb8
 564 325 l 1
 898 1458 l 1
 1157 1458 l 1xd8
 1474 321 l 1
 1764 1465 l 1
 2034 1465 l 1
 1624 0 l 1
 1343 0 l 1
 1030 1073 l 1
 687 0 l 1
 408 0 l 1xb8
EndSplineSet
EndChar

StartChar: X
Encoding: 56 88 109
Width: 1337
VWidth: 0
Flags: W
HStem: 0 21G<-11 299.263 1021.02 1347> 1445 20G<27 344.637 1019 1321>
VStem: -11 297<0 297> 27 305<1160 1465> 1032 289<1176 1465> 1034 313<0 313>
DStem2: -11 0 286 0 0.564566 0.825388<167.676 851.553> 332 1465 27 1465 0.553355 -0.832945<0 645.696> 677 919 836 746 0.559215 0.829022<0 651.168>
LayerCount: 2
Fore
SplineSet
-11 0 m 1xe4
 502 750 l 1
 27 1465 l 1
 332 1465 l 1
 677 919 l 1
 1032 1465 l 1
 1321 1465 l 1xd8
 836 746 l 1
 1347 0 l 1
 1034 0 l 1
 664 570 l 1
 286 0 l 1
 -11 0 l 1xe4
EndSplineSet
EndChar

StartChar: Y
Encoding: 57 89 110
Width: 1256
VWidth: 0
Flags: W
HStem: 0 21G<492 764> 1445 20G<-15 290.009 967.927 1269>
VStem: 492 272<0 581>
DStem2: 279 1465 -15 1465 0.497512 -0.867457<0 723.599> 628 831 764 586 0.498156 0.867087<0 724.586>
LayerCount: 2
Fore
SplineSet
492 0 m 1
 492 581 l 1
 -15 1465 l 1
 279 1465 l 1
 628 831 l 1
 979 1465 l 1
 1269 1465 l 1
 764 586 l 1
 764 0 l 1
 492 0 l 1
EndSplineSet
EndChar

StartChar: Z
Encoding: 58 90 115
Width: 1209
VWidth: 0
Flags: W
HStem: 0 216<396 1159> 1249 216<89 835>
DStem2: 62 174 396 216 0.583807 0.811892<229.091 1324.07>
LayerCount: 2
Fore
SplineSet
62 0 m 1
 62 174 l 1
 835 1249 l 1
 89 1249 l 1
 89 1465 l 1
 1155 1465 l 1
 1155 1268 l 1
 396 216 l 1
 1160 216 l 1
 1159 0 l 1
 62 0 l 1
EndSplineSet
EndChar

StartChar: a
Encoding: 65 97 119
Width: 1142
VWidth: 0
Flags: W
HStem: -21 186<369.702 626.092> 0 21G<816.5 1011> 526 162<643.39 749> 937 189<321.3 702.416>
VStem: 81 255<201.728 429.743> 749 262<252.58 526 683.331 883.309> 817 194<0 133.59>
LayerCount: 2
Fore
SplineSet
494 165 m 0xbc
 624 165 714 239 749 314 c 1
 749 526 l 1
 743 526 650 518 643 518 c 0
 443 500 336 452 336 310 c 0
 336 216 393 165 494 165 c 0xbc
423 -21 m 0
 228 -21 81 87 81 307 c 0
 81 545 245 637 531 665 c 1
 601 674 674 680 750 688 c 1
 750 746 l 2
 750 881 687 937 564 937 c 0
 463 937 338 902 233 862 c 1
 231 867 169 1038 167 1043 c 1
 291 1096 419 1126 587 1126 c 0
 882 1126 1011 1007 1011 717 c 2xbc
 1011 0 l 1
 817 0 l 1x7a
 816 7 775 127 774 134 c 1
 673 35 581 -21 423 -21 c 0
EndSplineSet
EndChar

StartChar: acute
Encoding: 115 180 123
Width: 619
VWidth: 0
Flags: W
HStem: 1195 383
VStem: 191 470
LayerCount: 2
Fore
SplineSet
191 1195 m 1
 362 1578 l 1
 661 1578 l 1
 346 1195 l 1
 191 1195 l 1
EndSplineSet
EndChar

StartChar: ae
Encoding: 164 230 125
Width: 1679
VWidth: 0
Flags: W
HStem: -22 172<342.991 618.815> -21 189<1070.41 1455.6> 944 191<257.961 650.917 1061.98 1323.39>
VStem: 72 234<182.99 397.517> 693 251<302.875 475 644 813.858> 1382 231<683 884.642>
DStem2: 608 623 607 464 0.996993 0.0774865<-272.151 77.9269 336.617 778.661>
LayerCount: 2
Fore
SplineSet
944 644 m 1x3c
 1380 683 l 1
 1380 683 1382 697 1382 714 c 0
 1381 821 1351 944 1207 944 c 0
 1089 944 960 874 944 644 c 1x3c
449 150 m 0xbc
 553 150 658 207 744 273 c 1
 733 295 699 397 698 475 c 1
 692 475 612 464 607 464 c 0
 408 440 306 414 306 305 c 0
 306 205 356 150 449 150 c 0xbc
411 -22 m 0
 203 -22 72 125 72 317 c 0
 72 559 279 587 608 623 c 1
 693 630 l 1
 693 747 l 2
 693 878 655 944 507 949 c 1
 378 949 240 896 183 872 c 1
 134 1052 l 1
 229 1097 349 1135 523 1135 c 0
 690 1135 809 1073 848 959 c 1
 920 1059 1050 1135 1209 1135 c 0
 1500 1135 1613 895 1613 625 c 0
 1613 565 1557 541 1456 537 c 0
 1420 535 1039 508 941 500 c 1
 950 288 1047 169 1232 168 c 0
 1361 168 1468 210 1519 249 c 1
 1591 87 l 1
 1504 24 1397 -21 1216 -21 c 0x7c
 1030 -21 916 41 837 138 c 1
 744 53 604 -22 411 -22 c 0
EndSplineSet
EndChar

StartChar: ampersand
Encoding: 6 38 128
Width: 1436
VWidth: 0
Flags: W
HStem: -23 191<404.331 793.217> 1315 170<492.517 739.197>
VStem: 58 231<275.88 566.752> 230 221<1017 1274.64> 781 228<1046.59 1274.25>
DStem2: 571 924 395 831 0.67882 -0.734305<-217.205 -51.182 180.077 698.169 898.802 1112.07>
LayerCount: 2
Fore
SplineSet
571 924 m 1xd8
 674 979 781 1045 781 1166 c 0
 781 1268 710 1315 619 1315 c 0
 520 1315 451 1266 451 1160 c 0
 451 1066 506 991 571 924 c 1xd8
587 168 m 0
 702 168 817 209 899 276 c 1
 862 316 545 661 508 701 c 1
 391 635 289 570 289 426 c 0xe8
 289 249 421 168 587 168 c 0
580 -23 m 0
 306 -23 58 101 58 404 c 0xe8
 58 623 219 737 395 831 c 1
 311 926 230 1019 230 1150 c 0xd8
 230 1379 409 1485 612 1485 c 0
 801 1485 1009 1392 1009 1168 c 0
 1009 978 844 864 687 786 c 1
 1037 404 l 1
 1095 467 1151 556 1191 634 c 1
 1361 521 l 1
 1314 430 1248 331 1181 256 c 1
 1388 37 l 1
 1375 33 1191 -12 1178 -16 c 1
 1036 133 l 1
 903 32 747 -23 580 -23 c 0
EndSplineSet
EndChar

StartChar: approxequal
Encoding: 405 8776 130
Width: 1312
VWidth: 0
Flags: W
HStem: 114 191<742.091 1036.27> 255 188<303.133 587.096> 528 191<738.895 1035.67> 669 187<300.033 585.918>
LayerCount: 2
Fore
SplineSet
223 516 m 1x10
 134 642 l 1
 182 763 270 856 426 856 c 0x10
 514 856 608 824 694 784 c 1
 782 741 845 719 906 719 c 0
 988 719 1051 759 1133 860 c 1
 1214 742 l 1
 1167 633 1042 528 889 528 c 0x20
 791 528 716 560 613 611 c 1
 547 645 491 669 417 669 c 0
 321 669 261 599 223 516 c 1x10
223 102 m 1
 134 229 l 1
 183 350 270 443 426 443 c 0x40
 516 443 611 409 693 372 c 1
 778 332 845 305 906 305 c 0
 988 305 1051 346 1133 447 c 1
 1215 328 l 1
 1167 219 1044 114 890 114 c 0x80
 792 114 717 146 614 197 c 0
 547 231 492 255 418 255 c 0x40
 322 255 261 184 223 102 c 1
EndSplineSet
EndChar

StartChar: asciicircum
Encoding: 62 94 132
Width: 1154
VWidth: 0
Flags: W
HStem: 1451 20G<487.978 637.694>
DStem2: 627 1471 564 1217 0.471531 -0.881849<194.283 946.98>
LayerCount: 2
Fore
SplineSet
36 549 m 1
 498 1471 l 1
 627 1471 l 1
 1120 549 l 1
 911 549 l 1
 564 1217 l 1
 245 549 l 1
 36 549 l 1
EndSplineSet
EndChar

StartChar: asciitilde
Encoding: 94 126 133
Width: 1297
VWidth: 0
Flags: W
HStem: 486 195<728.226 1033.93> 620 191<289.991 583.033>
LayerCount: 2
Fore
SplineSet
207 471 m 1x40
 130 616 l 1
 182 722 267 811 417 811 c 0x40
 504 811 594 782 681 745 c 1
 770 706 839 681 900 681 c 0
 981 681 1050 723 1134 817 c 1
 1205 682 l 1
 1152 584 1027 486 883 486 c 0x80
 788 486 715 516 618 560 c 0
 543 595 484 620 408 620 c 0
 314 620 248 548 207 471 c 1x40
EndSplineSet
EndChar

StartChar: asterisk
Encoding: 10 42 134
Width: 1104
VWidth: 0
Flags: W
LayerCount: 2
Fore
SplineSet
375 562 m 1
 171 676 l 1
 413 982 l 1
 71 1059 l 1
 135 1266 l 1
 472 1133 l 1
 437 1504 l 1
 665 1504 l 1
 630 1133 l 1
 971 1262 l 1
 1032 1054 l 1
 688 982 l 1
 698 968 912 704 933 676 c 1
 920 668 744 570 731 562 c 1
 549 885 l 1
 375 562 l 1
EndSplineSet
EndChar

StartChar: at
Encoding: 32 64 135
Width: 1699
VWidth: 0
Flags: W
HStem: -205 143<635.131 1179.72> 156 143<1141.97 1325.03> 171 141<671.883 862.025> 910 122<813.171 1050.79> 1255 145<658.608 1136.74>
VStem: 68 164<334.887 814.582> 455 177<347.239 699.56> 1008 129<307.571 375> 1477 156<492.738 926.182>
LayerCount: 2
Fore
SplineSet
752 312 m 0xbf80
 909 312 988 538 1029 748 c 0
 1039 800 1047 851 1054 899 c 1
 1019 906 981 910 941 910 c 0
 766 910 632 698 632 506 c 0
 632 405 665 312 752 312 c 0xbf80
891 -205 m 0
 406 -205 68 107 68 590 c 0
 68 1054 419 1400 893 1400 c 0
 1312 1400 1633 1117 1633 702 c 0
 1633 382 1419 156 1193 156 c 0xdf80
 1089 156 1011 216 1008 375 c 1
 959 259 861 171 749 171 c 0xbf80
 561 171 455 303 455 492 c 0
 455 779 649 1032 926 1032 c 0
 1044 1032 1153 1000 1242 968 c 1
 1203 758 1137 503 1137 388 c 0
 1137 316 1164 299 1215 299 c 0xdf80
 1359 299 1477 511 1477 705 c 0
 1477 1039 1230 1255 892 1255 c 0
 422 1255 232 847 232 578 c 0
 232 161 531 -62 889 -62 c 0
 1062 -62 1239 -20 1391 92 c 1
 1446 -16 l 1
 1308 -129 1129 -205 891 -205 c 0
EndSplineSet
EndChar

StartChar: b
Encoding: 66 98 137
Width: 1258
VWidth: 0
Flags: W
HStem: -21 199<530.302 788.532> 1 21G<133 363.714> 929 197<539.089 795.615> 1501 20G<133 395>
VStem: 133 262<310.323 802.507 956 1504> 916 261<322.966 790.665>
LayerCount: 2
Fore
SplineSet
659 178 m 0xbc
 811 178 916 309 916 558 c 0
 916 809 813 929 662 929 c 0
 500 929 395 825 393 570 c 1
 393 295 487 178 659 178 c 0xbc
722 -21 m 0
 560 -21 434 68 386 141 c 1
 360 1 l 1
 133 1 l 1x7c
 133 1504 l 1
 395 1521 l 1
 395 1181 l 2
 395 1115 393 1040 389 956 c 1
 444 1028 547 1126 728 1126 c 0
 1014 1126 1177 890 1177 562 c 0
 1177 216 1002 -21 722 -21 c 0
EndSplineSet
EndChar

StartChar: backslash
Encoding: 60 92 138
Width: 903
VWidth: 0
Flags: W
DStem2: 261 1462 30 1462 0.376736 -0.926321<0 1556.03>
LayerCount: 2
Fore
SplineSet
649 -60 m 1
 30 1462 l 1
 261 1462 l 1
 878 -60 l 1
 649 -60 l 1
EndSplineSet
EndChar

StartChar: bar
Encoding: 92 124 139
Width: 759
VWidth: 0
Flags: W
VStem: 278 203<-380 1538>
LayerCount: 2
Fore
SplineSet
278 -380 m 1
 278 1538 l 1
 481 1538 l 1
 481 -380 l 1
 278 -380 l 1
EndSplineSet
EndChar

StartChar: braceleft
Encoding: 91 123 140
Width: 786
VWidth: 0
Flags: W
HStem: -287 201<556.741 703> 505 214<52 224.612> 1311 200<558.969 703>
VStem: 277 252<-58.406 453.118 767.484 1280.83>
LayerCount: 2
Fore
SplineSet
703 -287 m 1
 415 -287 277 -223 277 13 c 2
 277 290 l 2
 277 447 230 505 52 505 c 1
 52 719 l 1
 237 720 277 773 277 930 c 2
 277 1221 l 2
 277 1449 421 1511 703 1511 c 1
 703 1311 l 1
 557 1309 529 1267 529 1137 c 2
 529 868 l 1
 528 730 464 665 317 610 c 1
 456 581 529 501 529 360 c 2
 529 88 l 2
 529 -43 556 -84 703 -86 c 1
 703 -287 l 1
EndSplineSet
EndChar

StartChar: braceright
Encoding: 93 125 141
Width: 787
VWidth: 0
Flags: W
HStem: -287 201<85 231.273> 505 214<561.157 737> 1311 200<85 230.887>
VStem: 259 252<-56.0894 453.781 766.25 1274.6>
LayerCount: 2
Fore
SplineSet
85 -287 m 1
 85 -86 l 1
 231 -84 259 -45 259 88 c 2
 259 360 l 2
 259 503 332 570 471 611 c 1
 328 656 260 730 259 868 c 1
 259 1137 l 2
 259 1268 232 1309 85 1311 c 1
 85 1511 l 1
 372 1511 511 1451 511 1212 c 2
 511 929 l 2
 511 774 552 720 737 719 c 1
 737 505 l 1
 559 505 511 451 511 290 c 2
 511 4 l 2
 511 -225 374 -287 85 -287 c 1
EndSplineSet
EndChar

StartChar: bracketleft
Encoding: 59 91 142
Width: 651
VWidth: 0
Flags: W
HStem: -266 181<387 599> 1327 180<387 599>
VStem: 135 464<-266 -85 1327 1507> 135 252<-85 1327>
LayerCount: 2
Fore
SplineSet
135 -266 m 1xe0
 135 1507 l 1
 599 1507 l 1
 599 1327 l 1xe0
 387 1327 l 1
 387 -85 l 1xd0
 599 -85 l 1
 599 -266 l 1
 135 -266 l 1xe0
EndSplineSet
EndChar

StartChar: bracketright
Encoding: 61 93 143
Width: 651
VWidth: 0
Flags: W
HStem: -266 181<52 263> 1327 180<52 263>
VStem: 52 464<-266 -85 1327 1507> 263 253<-85 1327>
LayerCount: 2
Fore
SplineSet
52 -266 m 1xe0
 52 -85 l 1xe0
 263 -85 l 1
 263 1327 l 1xd0
 52 1327 l 1
 52 1507 l 1
 516 1507 l 1
 516 -266 l 1
 52 -266 l 1xe0
EndSplineSet
EndChar

StartChar: breve
Encoding: 348 728 144
Width: 710
VWidth: 0
Flags: W
HStem: 1229 156<240.766 463.134> 1461 20G<61 228 476 643>
VStem: 61 167<1400.4 1481> 476 167<1400.4 1481>
LayerCount: 2
Fore
SplineSet
352 1229 m 0
 184 1229 61 1309 61 1481 c 1
 228 1481 l 1
 228 1413 265 1385 352 1385 c 0
 438 1385 476 1413 476 1481 c 1
 643 1481 l 1
 643 1309 520 1229 352 1229 c 0
EndSplineSet
EndChar

StartChar: brokenbar
Encoding: 101 166 145
Width: 817
VWidth: 0
Flags: W
VStem: 306 203<-379 340 820 1538>
LayerCount: 2
Fore
SplineSet
306 820 m 1
 306 1538 l 1
 509 1538 l 1
 509 820 l 1
 306 820 l 1
306 -379 m 1
 306 340 l 1
 509 340 l 1
 509 -379 l 1
 306 -379 l 1
EndSplineSet
EndChar

StartChar: bullet
Encoding: 391 8226 146
Width: 995
VWidth: 0
Flags: W
HStem: 355 682<323.614 675.268>
VStem: 143 713<532.807 857.981>
LayerCount: 2
Fore
SplineSet
497 355 m 0
 291 355 143 500 143 692 c 0
 143 886 298 1037 503 1037 c 0
 707 1037 856 891 856 699 c 0
 856 504 703 355 497 355 c 0
EndSplineSet
EndChar

StartChar: c
Encoding: 67 99 147
Width: 1008
VWidth: 0
Flags: W
HStem: -21 200<476.396 833.277> 927 199<475.198 822.724>
VStem: 81 261<331.723 778.788>
LayerCount: 2
Fore
SplineSet
614 -21 m 0
 281 -21 81 182 81 558 c 0
 81 927 304 1126 617 1126 c 0
 749 1126 858 1096 943 1043 c 1
 881 856 l 1
 808 894 714 927 628 927 c 0
 455 927 342 804 342 555 c 0
 342 307 449 179 631 179 c 0
 736 179 828 213 908 264 c 1
 933 65 l 1
 842 5 752 -21 614 -21 c 0
EndSplineSet
EndChar

StartChar: caron
Encoding: 347 711 149
Width: 772
VWidth: 0
Flags: W
HStem: 1193 353
VStem: 40 198<1348 1546>
DStem2: 238 1546 40 1546 0.595989 -0.802993<0 253.341>
LayerCount: 2
Fore
SplineSet
302 1193 m 1
 40 1546 l 1
 238 1546 l 1
 399 1350 l 1
 563 1546 l 1
 766 1546 l 1
 504 1193 l 1
 302 1193 l 1
EndSplineSet
EndChar

StartChar: cedilla
Encoding: 118 184 154
Width: 589
VWidth: 0
Flags: W
HStem: -357 381<185 271>
VStem: 62 267
LayerCount: 2
Fore
SplineSet
62 -357 m 1
 185 24 l 1
 329 24 l 1
 271 -357 l 1
 62 -357 l 1
EndSplineSet
EndChar

StartChar: cent
Encoding: 97 162 155
Width: 1082
VWidth: 0
Flags: W
HStem: 54 193<467.779 573 674 840.417> 989 195<464.931 573 674 837.954>
VStem: 82 247<406.901 839.245> 573 101<-202 58.3092 247 989 1180.49 1402>
LayerCount: 2
Fore
SplineSet
573 247 m 1
 573 989 l 1
 433 964 329 849 329 628 c 0
 329 401 424 276 573 247 c 1
573 -202 m 1
 573 54 l 1
 280 76 82 283 82 636 c 1
 83 980 305 1167 573 1184 c 1
 573 1402 l 1
 674 1402 l 1
 674 1181 l 1
 784 1172 866 1142 934 1090 c 1
 889 916 l 1
 842 949 756 984 674 992 c 1
 674 242 l 1
 762 249 838 285 892 323 c 1
 944 148 l 1
 866 93 781 61 674 54 c 1
 674 -202 l 1
 573 -202 l 1
EndSplineSet
EndChar

StartChar: circumflex
Encoding: 346 710 156
Width: 775
VWidth: 0
Flags: W
HStem: 1163 383
LayerCount: 2
Fore
SplineSet
47 1163 m 1
 297 1546 l 1
 505 1546 l 1
 756 1163 l 1
 572 1163 l 1
 398 1381 l 1
 226 1163 l 1
 47 1163 l 1
EndSplineSet
EndChar

StartChar: colon
Encoding: 26 58 157
Width: 460
VWidth: 0
Flags: W
HStem: -6 265<100 365> 841 265<100 365>
VStem: 100 265<-6 259 841 1106>
LayerCount: 2
Fore
SplineSet
100 841 m 1
 100 1106 l 1
 365 1106 l 1
 365 841 l 1
 100 841 l 1
100 -6 m 1
 100 259 l 1
 365 259 l 1
 365 -6 l 1
 100 -6 l 1
EndSplineSet
EndChar

StartChar: comma
Encoding: 12 44 158
Width: 508
VWidth: 0
Flags: W
HStem: -283 515<156.822 255.599>
VStem: 158 241<43.123 232>
LayerCount: 2
Fore
SplineSet
64 -283 m 1
 99 -113 133 71 158 232 c 1
 402 232 l 1
 399 183 l 1
 358 41 304 -120 241 -283 c 1
 64 -283 l 1
EndSplineSet
EndChar

StartChar: commaaccentcomb
Encoding: -1 806 159
Width: 554
VWidth: 0
Flags: W
LayerCount: 2
Fore
SplineSet
144 -648 m 1
 260 -648 l 1
 404 -150 l 1
 239 -150 l 1
 144 -648 l 1
274 0 m 1
 274 0 l 1
274 0 m 0
EndSplineSet
EndChar

StartChar: copyright
Encoding: 104 169 160
Width: 1743
VWidth: 0
Flags: W
HStem: -22 100<626.617 1109.02> 254 120<698.322 1073.97> 1118 120<698.586 1067.44> 1404 101<625.932 1108.14>
VStem: 89 116<501.525 980.784> 392 145<545.389 946.173> 1533 116<501.095 980.56>
LayerCount: 2
Fore
SplineSet
867 -22 m 0
 447 -22 89 293 89 741 c 0
 89 1188 446 1505 866 1505 c 0
 1289 1505 1649 1188 1649 741 c 0
 1649 293 1290 -22 867 -22 c 0
867 78 m 0
 1254 78 1533 375 1533 741 c 0
 1533 1106 1253 1404 866 1404 c 0
 483 1404 205 1106 205 742 c 0
 205 376 483 78 867 78 c 0
854 254 m 0
 588 254 392 460 392 743 c 0
 392 1019 579 1238 853 1238 c 0
 974 1238 1078 1211 1160 1156 c 1
 1111 1052 l 1
 1036 1096 942 1118 864 1118 c 0
 664 1118 537 966 537 743 c 0
 537 521 666 374 869 374 c 0
 947 374 1044 398 1117 440 c 1
 1161 336 l 1
 1081 283 975 254 854 254 c 0
EndSplineSet
EndChar

StartChar: currency
Encoding: 99 164 161
Width: 1162
VWidth: 0
Flags: W
HStem: 317 138<428.102 734.81> 1010 139<429.978 733.01>
VStem: 161 138<583.663 880.049> 864 138<583.516 880.485>
DStem2: 146 1236 51 1144 0.727076 -0.686557<0 257.919 1067.83 1326.83> 52 322 146 230 0.727096 0.686535<5.18582 261.464 1071.51 1331.32>
LayerCount: 2
Fore
SplineSet
581 455 m 0
 738 455 864 579 864 732 c 0
 864 885 737 1010 581 1010 c 0
 426 1010 299 884 299 732 c 0
 299 579 425 455 581 455 c 0
1020 229 m 1
 834 402 l 1
 762 348 676 317 581 317 c 0
 483 317 396 347 327 401 c 1
 146 230 l 1
 52 322 l 1
 237 495 l 1
 188 564 161 645 161 732 c 0
 161 819 188 899 237 969 c 1
 51 1144 l 1
 146 1236 l 1
 329 1063 l 1
 400 1118 487 1149 581 1149 c 0
 677 1149 763 1117 834 1061 c 1
 1020 1236 l 1
 1111 1142 l 1
 927 969 l 1
 975 900 1002 819 1002 732 c 0
 1002 644 976 564 928 495 c 1
 1109 323 l 1
 1020 229 l 1
EndSplineSet
EndChar

StartChar: d
Encoding: 68 100 162
Width: 1259
VWidth: 0
Flags: W
HStem: -21 199<463.371 742.75> 0 21G<893.133 1124> 926 200<462.904 742.062> 1501 20G<862 1124>
VStem: 81 261<323.015 779.689> 862 262<291.784 810.255 962.78 1504>
LayerCount: 2
Fore
SplineSet
604 178 m 0xbc
 769 178 869 283 872 537 c 1
 872 814 777 926 601 926 c 0
 450 926 342 807 342 553 c 0
 342 302 448 178 604 178 c 0xbc
542 -21 m 0
 252 -21 81 212 81 559 c 0
 81 896 251 1126 541 1126 c 0
 745 1126 833 1027 872 960 c 1
 866 1019 862 1098 862 1149 c 2
 862 1504 l 1
 1124 1521 l 1
 1124 0 l 1
 897 0 l 1x7c
 868 150 l 1
 823 77 750 -21 542 -21 c 0
EndSplineSet
EndChar

StartChar: dagger
Encoding: 389 8224 163
Width: 979
VWidth: 0
Flags: W
HStem: 970 169<67 384 582 916> 1466 20G<384 582>
VStem: 384 188<115 970 1139 1486>
LayerCount: 2
Fore
SplineSet
384 115 m 1
 384 970 l 1
 67 970 l 1
 67 1139 l 1
 384 1139 l 1
 384 1486 l 1
 582 1486 l 1
 582 1139 l 1
 916 1139 l 1
 916 970 l 1
 572 970 l 1
 572 115 l 1
 384 115 l 1
EndSplineSet
EndChar

StartChar: daggerdbl
Encoding: 390 8225 164
Width: 996
VWidth: 0
Flags: W
HStem: 367 162<126 403 603 875> 960 163<129 402 602 879> 1457 20G<402 602>
VStem: 403 200<-27 367 529 960 1123 1477>
LayerCount: 2
Fore
SplineSet
403 -27 m 1
 403 367 l 1
 126 367 l 1
 126 529 l 1
 403 529 l 1
 402 960 l 1
 129 960 l 1
 129 1123 l 1
 402 1123 l 1
 402 1477 l 1
 602 1477 l 1
 602 1123 l 1
 879 1123 l 1
 879 960 l 1
 602 960 l 1
 603 529 l 1
 875 529 l 1
 875 367 l 1
 603 367 l 1
 603 -27 l 1
 403 -27 l 1
EndSplineSet
EndChar

StartChar: dcroat
Encoding: 205 273 165
Width: 1235
VWidth: 0
Flags: W
HStem: -21 194<453.845 740.164> 0 21G<882.71 1129> 941 194<452.447 744.198> 1209 142<589 874 1129 1235>
VStem: 66 247<328.775 782.661> 874 255<0 155 312.6 795.98 967 1209 1351 1497>
LayerCount: 2
Fore
SplineSet
596 173 m 0xbc
 755 173 878 279 878 554 c 0
 878 826 753 941 596 941 c 0
 444 941 313 829 313 555 c 0
 313 288 441 173 596 173 c 0xbc
554 -21 m 1
 247 -16 66 232 66 564 c 0
 66 872 242 1135 550 1135 c 0
 725 1135 830 1054 874 967 c 1
 874 1209 l 1
 589 1209 l 1
 589 1351 l 1
 874 1351 l 1
 874 1497 l 1
 1129 1515 l 1
 1129 1351 l 1
 1235 1351 l 1
 1235 1209 l 1
 1129 1209 l 1
 1129 0 l 1
 884 0 l 1x7c
 874 155 l 1
 818 55 713 -21 554 -21 c 1
EndSplineSet
EndChar

StartChar: degree
Encoding: 111 176 166
Width: 850
VWidth: 0
Flags: W
HStem: 870 129<314.508 539.557> 1326 129<314.895 540.385>
VStem: 111 152<1050.45 1275.91> 591 151<1049.45 1277.5>
LayerCount: 2
Fore
SplineSet
427 870 m 0
 225 870 111 1015 111 1167 c 0
 111 1320 227 1455 427 1455 c 0
 625 1455 742 1320 742 1167 c 0
 742 1017 628 870 427 870 c 0
428 999 m 0
 511 999 591 1060 591 1165 c 0
 591 1267 511 1326 428 1326 c 0
 344 1326 263 1266 263 1165 c 0
 263 1060 344 999 428 999 c 0
EndSplineSet
EndChar

StartChar: dieresis
Encoding: 103 168 167
Width: 772
VWidth: 0
Flags: W
HStem: 1236 254<78 273 499 695>
VStem: 78 195<1236 1490> 499 196<1236 1490>
LayerCount: 2
Fore
SplineSet
499 1236 m 1
 499 1490 l 1
 695 1490 l 1
 695 1236 l 1
 499 1236 l 1
78 1236 m 1
 78 1490 l 1
 273 1490 l 1
 273 1236 l 1
 78 1236 l 1
EndSplineSet
EndChar

StartChar: divide
Encoding: 181 247 168
Width: 1456
VWidth: 0
Flags: W
HStem: 21 260<590 865> 489 187<178 1274> 875 259<590 874>
VStem: 590 275<21 281 875 1134>
LayerCount: 2
Fore
SplineSet
590 875 m 1
 590 1134 l 1
 874 1134 l 1
 874 875 l 1
 590 875 l 1
178 489 m 1
 178 676 l 1
 1274 676 l 1
 1274 489 l 1
 178 489 l 1
590 21 m 1
 590 281 l 1
 865 281 l 1
 865 21 l 1
 590 21 l 1
EndSplineSet
EndChar

StartChar: dollar
Encoding: 4 36 169
Width: 1194
VWidth: 0
Flags: W
HStem: -16 224<307.06 556 656 767.347> 1267 222<448.995 558 656 892.666>
VStem: 101 280<974.609 1207.59> 558 98<-212 -20 208 606 911 1267 1491 1643> 841 275<279.985 528.767>
DStem2: 502 929 396 688 0.953184 -0.30239<-121.615 58.8213 244.462 425.157>
LayerCount: 2
Fore
SplineSet
656 208 m 1
 779 228 841 300 841 416 c 0
 841 504 787 562 686 596 c 0
 680 599 661 604 656 606 c 1
 656 208 l 1
558 911 m 1
 558 1267 l 1
 447 1253 386 1200 381 1088 c 1
 381 1005 426 952 502 929 c 0
 513 925 545 915 558 911 c 1
558 -212 m 1
 556 -20 l 1
 366 -18 217 31 94 102 c 1
 160 317 l 1
 274 254 419 206 558 202 c 1
 558 636 l 1
 514 649 429 675 396 688 c 1
 217 751 101 870 101 1076 c 0
 101 1329 287 1471 558 1489 c 1
 558 1643 l 1
 656 1643 l 1
 656 1491 l 1
 816 1486 953 1451 1075 1382 c 1
 993 1184 l 1
 899 1226 778 1266 656 1271 c 1
 656 878 l 1
 674 871 720 858 742 851 c 0
 1005 765 1116 651 1116 414 c 0
 1116 156 934 9 656 -16 c 1
 656 -212 l 1
 558 -212 l 1
EndSplineSet
EndChar

StartChar: dotaccent
Encoding: 349 729 170
Width: 539
VWidth: 0
Flags: W
HStem: 1249 216<157 358>
VStem: 157 201<1249 1465>
LayerCount: 2
Fore
SplineSet
157 1249 m 1
 157 1465 l 1
 358 1465 l 1
 358 1249 l 1
 157 1249 l 1
EndSplineSet
EndChar

StartChar: dotlessi
Encoding: 235 305 171
Width: 548
VWidth: 0
Flags: W
HStem: 0 21G<129 384> 1078 20G<129 384>
VStem: 129 255<0 1098>
LayerCount: 2
Fore
SplineSet
129 0 m 1
 129 1098 l 1
 384 1098 l 1
 384 0 l 1
 129 0 l 1
EndSplineSet
EndChar

StartChar: e
Encoding: 69 101 172
Width: 1157
VWidth: 0
Flags: W
HStem: -21 194<482.513 892.532> 496 165<350 830> 939 187<458.426 736.787>
VStem: 81 264<316.25 496 661 801.78> 830 247<661 840.448>
LayerCount: 2
Fore
SplineSet
350 661 m 1
 830 661 l 1
 830 841 743 939 600 939 c 0
 473 939 364 854 350 661 c 1
641 -21 m 0
 287 -21 81 195 81 553 c 0
 81 900 277 1125 599 1126 c 0
 908 1126 1077 913 1077 607 c 0
 1077 573 1076 532 1076 496 c 1
 345 496 l 1
 350 290 463 173 651 173 c 0
 787 173 900 212 997 267 c 1
 1034 81 l 1
 932 18 816 -21 641 -21 c 0
EndSplineSet
EndChar

StartChar: eight
Encoding: 24 56 179
Width: 1151
VWidth: 0
Flags: W
HStem: -21 182<403.493 752.224> 1310 180<410.032 746.095>
VStem: 64 244<253.1 540.753> 92 230<961.397 1223.43> 833 230<960.039 1228.2> 846 244<250.539 537.316>
LayerCount: 2
Fore
SplineSet
578 835 m 1xd8
 738 872 833 963 833 1110 c 0
 833 1232 723 1310 578 1310 c 0
 434 1310 322 1232 322 1110 c 0
 322 962 422 870 578 835 c 1xd8
578 161 m 0
 746 161 846 246 846 394 c 0
 846 549 727 641 578 679 c 1
 423 640 308 548 308 393 c 0xe4
 308 245 412 161 578 161 c 0
578 -21 m 0
 298 -21 64 121 64 389 c 0xe4
 64 579 170 699 323 767 c 1
 187 832 92 936 92 1111 c 0
 92 1363 309 1490 578 1490 c 0
 848 1490 1063 1362 1063 1111 c 0xd8
 1063 938 974 833 849 767 c 1
 995 696 1090 575 1090 388 c 0
 1090 119 857 -21 578 -21 c 0
EndSplineSet
EndChar

StartChar: emdash
Encoding: 382 8212 181
Width: 2151
VWidth: 0
Flags: W
HStem: 461 185<30 2116>
LayerCount: 2
Fore
SplineSet
30 461 m 1
 30 646 l 1
 2116 646 l 1
 2116 461 l 1
 30 461 l 1
EndSplineSet
EndChar

StartChar: endash
Encoding: 381 8211 182
Width: 1271
VWidth: 0
Flags: W
HStem: 461 185<89 1188>
LayerCount: 2
Fore
SplineSet
89 461 m 1
 89 646 l 1
 1188 646 l 1
 1188 461 l 1
 89 461 l 1
EndSplineSet
EndChar

StartChar: equal
Encoding: 29 61 184
Width: 1202
VWidth: 0
Flags: W
HStem: 357 191<93 1111> 754 193<93 1111>
LayerCount: 2
Fore
SplineSet
93 754 m 1
 93 947 l 1
 1111 947 l 1
 1111 754 l 1
 93 754 l 1
93 357 m 1
 93 548 l 1
 1111 548 l 1
 1111 357 l 1
 93 357 l 1
EndSplineSet
EndChar

StartChar: eth
Encoding: 174 240 185
Width: 1226
VWidth: 0
Flags: W
HStem: -21 199<456.029 796.334> 774 179<446.561 727.488>
VStem: 84 239<310.631 649.519> 919 240<299.744 645.918>
DStem2: 189 1226 256 1092 0.926752 0.375673<11.7522 221.165 508.685 721.429>
LayerCount: 2
Fore
SplineSet
625 178 m 0
 816 178 919 296 919 472 c 0
 919 648 815 774 619 774 c 0
 424 774 323 656 323 478 c 0
 323 304 432 178 625 178 c 0
626 -21 m 0
 301 -21 84 178 84 467 c 0
 84 773 279 953 581 953 c 0
 639 953 688 937 730 924 c 1
 719 945 545 1152 505 1193 c 1
 256 1092 l 1
 189 1226 l 1
 394 1309 l 1
 191 1509 l 1
 489 1509 l 1
 608 1396 l 1
 858 1496 l 1
 927 1364 l 1
 716 1280 l 1
 837 1146 964 993 1047 858 c 0
 1122 735 1159 607 1159 481 c 0
 1159 206 990 -21 626 -21 c 0
EndSplineSet
EndChar

StartChar: exclam
Encoding: 1 33 186
Width: 446
VWidth: 0
Flags: W
HStem: -18 307<116.134 330.527> 1438 20G<108 349>
VStem: 69 308<27.25 242.625> 108 241<1048.43 1458>
LayerCount: 2
Fore
SplineSet
224 -18 m 0xe0
 136 -18 69 52 69 134 c 0
 69 217 136 289 224 289 c 0
 311 289 377 217 377 134 c 0
 377 52 311 -18 224 -18 c 0xe0
193 449 m 1
 108 1162 l 1
 108 1458 l 1
 349 1458 l 1
 349 1162 l 1xd0
 259 449 l 1
 193 449 l 1
EndSplineSet
EndChar

StartChar: f
Encoding: 70 102 188
Width: 760
VWidth: 0
Flags: W
HStem: 0 21G<203 465> 925 174<465 723> 925 154<46 158.538> 1349 203<502.282 750.102>
VStem: 203 262<0 925 1099 1311.81>
LayerCount: 2
Fore
SplineSet
203 0 m 1xd8
 203 925 l 1
 29 925 l 1
 46 1079 l 1xb8
 203 1099 l 1
 203 1160 l 1
 204 1419 292 1552 568 1552 c 0
 635 1552 706 1545 772 1533 c 1
 749 1338 l 1
 704 1344 658 1349 620 1349 c 0
 507 1349 465 1299 465 1174 c 2
 465 1099 l 1
 723 1099 l 1
 723 925 l 1
 465 925 l 1
 465 0 l 1
 203 0 l 1xd8
EndSplineSet
EndChar

StartChar: five
Encoding: 21 53 189
Width: 1138
VWidth: 0
Flags: W
HStem: -21 210<314.734 685.547> 734 203<428.704 698.413> 1252 206<437 986>
VStem: 205 232<1156.94 1252> 799 258<304.676 630.037>
LayerCount: 2
Fore
SplineSet
542 -21 m 0
 323 -21 127 99 105 119 c 1
 185 307 l 1
 201 294 347 189 515 189 c 0
 709 189 799 311 799 471 c 0
 799 631 702 734 564 734 c 0
 488 734 409 700 342 626 c 1
 167 660 l 1
 205 1458 l 1
 1001 1458 l 1
 986 1252 l 1
 437 1252 l 1
 436 1216 424 927 423 890 c 1
 485 923 548 937 608 937 c 0
 878 937 1057 745 1057 468 c 0
 1057 178 874 -21 542 -21 c 0
EndSplineSet
EndChar

StartChar: florin
Encoding: 302 402 190
Width: 1055
VWidth: 0
Flags: W
HStem: -336 186<47.751 228.893> 793 175<295 439 699 880> 1275 193<766.173 1002.41>
DStem2: 284 32 537 128 0.188992 0.981979<-165.701 778.543 997.564 1296.89>
LayerCount: 2
Fore
SplineSet
157 -336 m 0
 126 -336 42 -316 33 -314 c 1
 50 -125 l 1
 57 -127 126 -150 145 -150 c 0
 229 -150 260 -64 284 32 c 1
 347 271 388 543 439 795 c 1
 282 795 l 1
 295 968 l 1
 473 968 l 1
 492 1098 l 2
 520 1293 608 1468 851 1468 c 0
 902 1468 1002 1446 1012 1443 c 1
 1001 1242 l 1
 992 1246 909 1275 875 1275 c 0
 777 1275 749 1229 731 1136 c 2
 699 968 l 1
 893 968 l 1
 880 793 l 1
 667 793 l 1
 537 128 l 2
 494 -87 433 -336 157 -336 c 0
EndSplineSet
EndChar

StartChar: four
Encoding: 20 52 191
Width: 1253
VWidth: 0
Flags: W
HStem: 0 21G<753 1018> 325 197<352 753 1018 1185> 1438 20G<672.581 1018>
VStem: 753 265<0 325 523 1202>
DStem2: 92 503 352 522 0.527518 0.849544<153.296 942.521>
LayerCount: 2
Fore
SplineSet
352 522 m 1
 753 522 l 1
 753 1202 l 1
 352 522 l 1
753 0 m 1
 753 325 l 1
 92 325 l 1
 92 503 l 1
 685 1458 l 1
 1018 1458 l 1
 1018 523 l 1
 1198 523 l 1
 1185 325 l 1
 1018 325 l 1
 1018 0 l 1
 753 0 l 1
EndSplineSet
EndChar

StartChar: fraction
Encoding: 394 8260 192
Width: 1179
VWidth: 0
Flags: W
HStem: 0 21G<41 251.209> 1451 20G<928.763 1137>
VStem: 41 198<0 198> 941 196<1275 1471>
DStem2: 41 0 239 0 0.521896 0.853009<103.335 1724.48>
LayerCount: 2
Fore
SplineSet
41 0 m 1
 941 1471 l 1
 1137 1471 l 1
 239 0 l 1
 41 0 l 1
EndSplineSet
EndChar

StartChar: g
Encoding: 71 103 193
Width: 1267
VWidth: 0
Flags: W
HStem: -492 212<353 754.86> 0 183<479.747 770.021> 926 200<475.088 760.293> 1079 20G<905.313 1142>
VStem: 75 262<345.75 777.674> 890 252<-164.515 150.154 317.861 792.787> 908 234<992.276 1099>
LayerCount: 2
Fore
SplineSet
616 183 m 0xec
 820 183 888 336 890 546 c 0
 890 552 890 578 890 584 c 0
 887 799 800 924 629 926 c 1
 431 926 337 777 337 562 c 0
 337 357 436 183 616 183 c 0xec
353 -492 m 1
 338 -280 l 1
 471 -280 l 2
 773 -280 886 -216 886 7 c 0
 886 49 883 113 880 152 c 1
 820 69 750 0 574 0 c 0
 284 0 75 230 75 562 c 0
 75 925 299 1126 561 1126 c 0
 723 1126 824 1063 890 965 c 1xec
 908 1099 l 1
 1142 1099 l 1xda
 1142 78 l 2
 1142 -289 1021 -492 504 -492 c 2
 353 -492 l 1
EndSplineSet
EndChar

StartChar: gcommaaccent
Encoding: 221 291 196
Width: 1268
VWidth: 0
Flags: W
HStem: -492 212<353 754.86> 0 183<479.747 770.021> 926 200<475.088 760.293> 1079 20<905.313 1142>
VStem: 75 262<345.75 777.674> 890 252<-164.515 150.154 317.861 792.787> 908 234<992.276 1099>
LayerCount: 2
Fore
SplineSet
445 1213 m 1xc8
 610 1730 l 1
 775 1730 l 1
 666 1213 l 1
 445 1213 l 1xc8
EndSplineSet
Refer: 193 103 N 1 0 0 1 0 0 2
EndChar

StartChar: germandbls
Encoding: 157 223 198
Width: 1259
VWidth: 0
Flags: W
HStem: 0 179<525.112 888.219> 1299 191<435.034 728.061>
VStem: 108 255<0 1220.42> 785 250<1033.22 1246.31> 943 259<230.035 461.025>
LayerCount: 2
Fore
SplineSet
108 0 m 1xf0
 108 1024 l 2
 108 1317 274 1490 583 1490 c 0
 826 1490 1035 1377 1035 1144 c 0xf0
 1035 965 881 877 755 799 c 1
 931 700 1202 592 1202 344 c 0
 1202 107 1026 0 794 0 c 2
 502 0 l 2
 503 0 527 179 527 179 c 1
 767 179 l 2
 880 179 943 244 943 345 c 0xe8
 943 507 732 575 589 663 c 0
 548 688 502 727 502 786 c 0
 502 837 536 875 573 903 c 0
 666 973 785 1026 785 1144 c 0
 785 1243 699 1299 582 1299 c 0
 402 1299 363 1188 363 1016 c 2
 363 0 l 1
 108 0 l 1xf0
EndSplineSet
EndChar

StartChar: grave
Encoding: 64 96 199
Width: 514
VWidth: 0
Flags: W
HStem: 1195 383
VStem: -8 494
LayerCount: 2
Fore
SplineSet
323 1195 m 1
 -8 1578 l 1
 298 1578 l 1
 486 1195 l 1
 323 1195 l 1
EndSplineSet
EndChar

StartChar: greater
Encoding: 30 62 200
Width: 1196
VWidth: 0
Flags: W
DStem2: 119 403 119 197 0.907354 0.420367<0 768.671>
LayerCount: 2
Fore
SplineSet
119 197 m 1
 119 403 l 1
 823 712 l 1
 119 1047 l 1
 119 1253 l 1
 1086 769 l 1
 1086 645 l 1
 119 197 l 1
EndSplineSet
EndChar

StartChar: greaterequal
Encoding: 408 8805 201
Width: 1224
VWidth: 0
Flags: W
HStem: 2 156<145 1094>
DStem2: 151 415 151 225 0.897654 0.440701<0 772.01> 152 1274 152 1084 0.892899 -0.450257<85.5489 862.33>
LayerCount: 2
Fore
SplineSet
145 2 m 1
 145 158 l 1
 1094 157 l 1
 1094 2 l 1
 145 2 l 1
151 225 m 1
 151 415 l 1
 850 743 l 1
 152 1084 l 1
 152 1274 l 1
 1090 801 l 1
 1090 686 l 1
 151 225 l 1
EndSplineSet
EndChar

StartChar: guillemotleft
Encoding: 106 171 202
Width: 1083
VWidth: 0
Flags: W
DStem2: 318 562 74 546 0.608025 -0.793918<0 380.771> 84 589 318 562 0.610768 0.79181<121.541 502.646> 489 558 741 562 0.603858 0.797092<155.361 538.206> 741 562 489 558 0.607799 -0.794091<0 381.436>
LayerCount: 2
Fore
SplineSet
812 136 m 1
 489 558 l 1
 814 987 l 1
 1015 934 l 1
 741 562 l 1
 1011 190 l 1
 812 136 l 1
388 136 m 1
 74 546 l 1
 84 589 l 1
 391 987 l 1
 598 934 l 1
 318 562 l 1
 593 190 l 1
 388 136 l 1
EndSplineSet
EndChar

StartChar: guillemotright
Encoding: 121 187 203
Width: 1168
VWidth: 0
Flags: W
DStem2: 113 190 314 136 0.605036 0.796198<78.6176 461.966> 316 987 116 934 0.608984 -0.793183<0 380.34> 545 190 749 136 0.600298 0.799776<79.2729 463.799> 753 987 550 934 0.601815 -0.798635<0 380.945>
LayerCount: 2
Fore
SplineSet
749 136 m 1
 545 190 l 1
 822 562 l 1
 550 934 l 1
 753 987 l 1
 1071 565 l 1
 749 136 l 1
314 136 m 1
 113 190 l 1
 387 562 l 1
 116 934 l 1
 316 987 l 1
 640 565 l 1
 314 136 l 1
EndSplineSet
EndChar

StartChar: guilsinglleft
Encoding: 392 8249 204
Width: 584
VWidth: 0
Flags: W
VStem: 321 201<174 375 764 965>
DStem2: 55 568 268 568 0.565205 0.82495<120.389 481.241> 268 568 55 568 0.559545 -0.8288<0 356.203>
LayerCount: 2
Fore
SplineSet
321 174 m 1
 55 568 l 1
 327 965 l 1
 529 965 l 1
 268 568 l 1
 522 174 l 1
 321 174 l 1
EndSplineSet
EndChar

StartChar: guilsinglright
Encoding: 393 8250 205
Width: 584
VWidth: 0
Flags: W
VStem: 56 201<174 375 764 965>
DStem2: 56 174 257 174 0.569967 0.821668<114.563 472.75> 263 965 63 965 0.560478 -0.828169<0 357.66>
LayerCount: 2
Fore
SplineSet
56 174 m 1
 316 569 l 1
 63 965 l 1
 263 965 l 1
 531 569 l 1
 257 174 l 1
 56 174 l 1
EndSplineSet
EndChar

StartChar: h
Encoding: 72 104 206
Width: 1253
VWidth: 0
Flags: W
HStem: 0 21G<133 395 866 1128> 928 198<532.313 805.348> 1501 20G<133 395>
VStem: 133 262<0 801.672 970 1504> 866 262<0 858.492>
LayerCount: 2
Fore
SplineSet
133 0 m 1
 133 1504 l 1
 395 1521 l 1
 395 1204 l 2
 395 1165 389 981 389 970 c 1
 453 1046 563 1126 741 1126 c 0
 978 1126 1128 997 1128 696 c 2
 1128 0 l 1
 866 0 l 1
 866 667 l 2
 866 842 817 928 677 928 c 0
 556 928 462 859 419 769 c 1
 402 704 395 624 395 529 c 2
 395 0 l 1
 133 0 l 1
EndSplineSet
EndChar

StartChar: hbar
Encoding: 225 295 207
Width: 1189
VWidth: 0
Flags: W
HStem: 0 21G<107 361 840 1094> 927 193<503.3 788.451> 1225 136<5 107 361 659>
VStem: 107 254<0 809.874 973 1225 1361 1496> 840 254<0 867.649>
LayerCount: 2
Fore
SplineSet
107 0 m 1
 107 1225 l 1
 5 1225 l 1
 5 1361 l 1
 107 1361 l 1
 107 1496 l 1
 361 1515 l 1
 361 1361 l 1
 659 1361 l 1
 659 1225 l 1
 361 1225 l 1
 361 973 l 1
 452 1069 573 1120 721 1120 c 0
 932 1120 1094 1001 1094 667 c 2
 1094 0 l 1
 840 0 l 1
 840 654 l 2
 840 838 808 927 660 927 c 0
 526 927 410 841 361 745 c 1
 361 0 l 1
 107 0 l 1
EndSplineSet
EndChar

StartChar: hungarumlaut
Encoding: 353 733 209
Width: 982
VWidth: 0
Flags: W
HStem: 1155 361
LayerCount: 2
Fore
SplineSet
461 1155 m 1
 708 1516 l 1
 933 1516 l 1
 595 1155 l 1
 461 1155 l 1
150 1155 m 1
 396 1516 l 1
 622 1516 l 1
 284 1155 l 1
 150 1155 l 1
EndSplineSet
EndChar

StartChar: hyphen
Encoding: 13 45 210
Width: 677
VWidth: 0
Flags: W
HStem: 445 204<70 606>
VStem: 70 536<445 649>
LayerCount: 2
Fore
SplineSet
70 445 m 1
 70 649 l 1
 606 649 l 1
 606 445 l 1
 70 445 l 1
EndSplineSet
EndChar

StartChar: i
Encoding: 73 105 211
Width: 533
VWidth: 0
Flags: W
HStem: 0 21G<139 401> 1079 20G<139 401> 1259 224<139 402>
VStem: 139 262<0 1099 1259 1483>
LayerCount: 2
Fore
SplineSet
139 1259 m 1
 139 1483 l 1
 402 1483 l 1
 402 1259 l 1
 139 1259 l 1
139 0 m 1
 139 1099 l 1
 401 1099 l 1
 401 0 l 1
 139 0 l 1
EndSplineSet
EndChar

StartChar: infinity
Encoding: 403 8734 219
Width: 1695
VWidth: 0
Flags: W
HStem: 241 166<343.722 603.533 1097.34 1350.49> 835 160<335.69 600.673 1097.13 1355.13>
VStem: 101 166<485.321 766.26> 1419 176<478.28 769.47>
LayerCount: 2
Fore
SplineSet
469 407 m 0
 597 407 686 516 756 618 c 1
 684 730 597 835 461 835 c 0
 336 835 267 743 267 621 c 0
 267 503 346 407 469 407 c 0
1232 407 m 0
 1387 407 1419 547 1419 647 c 1
 1415 757 1343 835 1229 835 c 0
 1100 835 1010 722 942 621 c 1
 1026 506 1103 407 1232 407 c 0
470 241 m 0
 247 241 101 421 101 641 c 0
 101 845 255 995 487 995 c 0
 653 995 762 869 850 750 c 1
 940 875 1048 996 1230 996 c 0
 1451 996 1595 844 1595 624 c 0
 1595 404 1438 241 1229 241 c 0
 1058 241 948 354 850 488 c 1
 758 363 647 241 470 241 c 0
EndSplineSet
EndChar

StartChar: integral
Encoding: 404 8747 220
Width: 760
VWidth: 0
Flags: W
HStem: -407 183<100.183 330.006> 1488 182<617.321 847.809>
VStem: 357 231<-198.795 1461.79>
LayerCount: 2
Fore
SplineSet
251 -407 m 0
 196 -407 110 -383 100 -380 c 1
 97 -197 l 1
 103 -200 191 -224 225 -224 c 0
 339 -224 357 -162 357 -29 c 2
 357 1272 l 2
 357 1492 444 1670 698 1670 c 0
 754 1670 838 1648 848 1645 c 1
 851 1461 l 1
 845 1463 756 1488 722 1488 c 0
 608 1488 588 1427 588 1294 c 2
 588 -9 l 2
 588 -229 504 -407 251 -407 c 0
EndSplineSet
EndChar

StartChar: j
Encoding: 74 106 223
Width: 527
VWidth: 0
Flags: W
HStem: -427 194<-48 129.32> 1079 20G<164 426> 1259 224<164 426>
VStem: 164 262<-195.595 1099 1259 1483>
LayerCount: 2
Fore
SplineSet
164 1259 m 1
 164 1483 l 1
 426 1483 l 1
 426 1259 l 1
 164 1259 l 1
-48 -427 m 1
 -77 -233 l 1
 -19 -233 l 2
 145 -233 164 -181 164 -16 c 2
 164 1099 l 1
 426 1099 l 1
 426 26 l 2
 426 -282 361 -427 11 -427 c 2
 -48 -427 l 1
EndSplineSet
EndChar

StartChar: k
Encoding: 75 107 225
Width: 1173
VWidth: 0
Flags: W
HStem: 0 21G<133 395 851.491 1183> 1079 20G<774.5 1154> 1501 20G<133 395>
VStem: 133 262<0 413 624 1504> 842 312<787 1099> 866 317<0 317>
DStem2: 431 665 702 631 0.69015 0.723667<162.426 597.723> 702 631 504 499 0.606233 -0.795287<0 601.248>
LayerCount: 2
Fore
SplineSet
133 0 m 1xf4
 133 1504 l 1
 395 1521 l 1
 395 846 l 1
 389 624 l 1
 392 627 427 661 431 665 c 0
 553 810 707 959 842 1099 c 1
 1154 1099 l 1xf8
 702 631 l 1
 1183 0 l 1
 866 0 l 1
 504 499 l 1
 395 413 l 1
 395 0 l 1
 133 0 l 1xf4
EndSplineSet
EndChar

StartChar: kgreenlandic
Encoding: 242 312 227
Width: 1124
VWidth: 0
Flags: W
HStem: 0 21G<115 364 819.482 1151> 1080 20G<115 364 774.588 1106>
VStem: 115 249<0 458 634 1100> 793 313<787 1100> 836 315<0 315>
DStem2: 364 634 647 596 0.67333 0.739342<159.027 633.392> 647 596 428 494 0.636801 -0.771028<0 579.888>
LayerCount: 2
Fore
SplineSet
115 0 m 1xe8
 115 1100 l 1
 364 1100 l 1
 364 634 l 1
 793 1100 l 1
 1106 1100 l 1xf0
 647 596 l 1
 696 550 1110 46 1151 0 c 1
 836 0 l 1
 428 494 l 1
 364 458 l 1
 364 0 l 1
 115 0 l 1xe8
EndSplineSet
EndChar

StartChar: l
Encoding: 76 108 228
Width: 700
VWidth: 0
Flags: W
HStem: -15 200<439.383 695.641> 1501 20G<136 398>
VStem: 136 262<234.75 1504>
LayerCount: 2
Fore
SplineSet
518 -15 m 0
 215 -15 136 129 136 433 c 2
 136 1504 l 1
 398 1521 l 1
 398 438 l 2
 398 243 433 185 569 185 c 0
 608 185 647 189 696 196 c 1
 703 9 l 1
 685 6 599 -15 518 -15 c 0
EndSplineSet
EndChar

StartChar: less
Encoding: 28 60 231
Width: 1196
VWidth: 0
Flags: W
DStem2: 377 712 115 645 0.90683 -0.421497<0 769.494>
LayerCount: 2
Fore
SplineSet
1081 196 m 1
 115 645 l 1
 115 769 l 1
 1082 1251 l 1
 1082 1045 l 1
 377 712 l 1
 1081 401 l 1
 1081 196 l 1
EndSplineSet
EndChar

StartChar: lessequal
Encoding: 407 8804 232
Width: 1224
VWidth: 0
Flags: W
HStem: 2 155<138 1089>
DStem2: 145 801 385 744 0.893089 0.44988<188.698 963.69> 385 744 145 685 0.897661 -0.440687<0 770.656>
LayerCount: 2
Fore
SplineSet
138 2 m 1
 138 157 l 1
 1089 158 l 1
 1089 2 l 1
 138 2 l 1
1082 225 m 1
 145 685 l 1
 145 801 l 1
 1082 1273 l 1
 1082 1083 l 1
 385 744 l 1
 1082 415 l 1
 1082 225 l 1
EndSplineSet
EndChar

StartChar: logicalnot
Encoding: 107 172 233
Width: 1287
VWidth: 0
Flags: W
HStem: 641 193<132 961>
VStem: 961 191<247 641>
LayerCount: 2
Fore
SplineSet
961 247 m 1
 961 641 l 1
 132 641 l 1
 132 834 l 1
 1152 834 l 1
 1152 247 l 1
 961 247 l 1
EndSplineSet
EndChar

StartChar: lozenge
Encoding: 409 9674 234
Width: 1228
VWidth: 0
Flags: W
DStem2: 98 728 295 730 0.506147 0.862447<74.5006 764.072> 295 730 98 728 0.5013 -0.865273<-25.9406 660.269> 611 150 675 -47 0.509924 0.860219<0 680.175> 684 1505 621 1307 0.502485 -0.864586<139.531 813.709>
LayerCount: 2
Fore
SplineSet
611 150 m 1
 719 348 832 539 937 729 c 1
 833 922 724 1115 621 1307 c 1
 513 1109 400 919 295 730 c 1
 400 535 506 341 611 150 c 1
547 -47 m 1
 98 728 l 1
 554 1505 l 1
 684 1505 l 1
 1135 729 l 1
 675 -47 l 1
 547 -47 l 1
EndSplineSet
EndChar

StartChar: lslash
Encoding: 249 322 235
Width: 679
VWidth: 0
Flags: W
HStem: -15 196<430.27 665.645> 1105 20G<522.423 555>
VStem: 142 255<215.816 692 1028 1495>
LayerCount: 2
Fore
SplineSet
516 -15 m 0
 198 -15 142 135 142 459 c 2
 142 692 l 1
 30 625 l 1
 30 808 l 1
 142 876 l 1
 142 1495 l 1
 397 1515 l 1
 397 1028 l 1
 555 1125 l 1
 555 943 l 1
 397 846 l 1
 397 438 l 2
 397 242 405 181 562 181 c 0
 574 181 653 187 665 188 c 1
 681 -1 l 1
 668 -3 562 -15 516 -15 c 0
EndSplineSet
EndChar

StartChar: m
Encoding: 77 109 236
Width: 1911
VWidth: 0
Flags: W
HStem: 0 21G<133 395 832 1094 1523 1786> 927 199<522.835 768.357 1215.62 1467.05> 1079 20G<133 349.286>
VStem: 133 262<0 813.005> 832 262<0 801.74> 1523 263<0 863.74>
LayerCount: 2
Fore
SplineSet
133 0 m 1xdc
 133 0 133 1082 133 1099 c 1
 345 1099 l 1xbc
 375 959 l 1
 429 1028 524 1126 738 1126 c 0
 931 1126 1023 1026 1058 949 c 1
 1137 1062 1266 1126 1420 1126 c 0
 1677 1126 1786 976 1786 702 c 2
 1786 0 l 1
 1523 0 l 1
 1523 624 l 2
 1523 825 1492 928 1352 928 c 0
 1247 928 1173 875 1132 790 c 0
 1112 747 1100 697 1094 643 c 1
 1094 0 l 1
 832 0 l 1
 832 636 l 2
 832 817 796 927 652 927 c 0
 535 927 457 859 418 775 c 1
 403 709 395 629 395 533 c 2
 395 0 l 1
 133 0 l 1xdc
EndSplineSet
EndChar

StartChar: macron
Encoding: 110 175 237
Width: 912
VWidth: 0
Flags: W
HStem: 1377 153<118 804>
LayerCount: 2
Fore
SplineSet
118 1377 m 1
 118 1530 l 1
 804 1530 l 1
 804 1377 l 1
 118 1377 l 1
EndSplineSet
EndChar

StartChar: middot
Encoding: -1 183 238
Width: 468
VWidth: 0
Flags: W
LayerCount: 2
Fore
SplineSet
150 561 m 1
 318 561 l 1
 318 759 l 1
 150 759 l 1
 150 561 l 1
EndSplineSet
EndChar

StartChar: multiply
Encoding: 149 215 239
Width: 1395
VWidth: 0
Flags: W
DStem2: 412 1020 278 882 0.707587 -0.706627<2.69785 419.887 623.672 1041.57> 278 283 412 147 0.706145 0.708067<0 417.908 621.278 1038.48>
LayerCount: 2
Fore
SplineSet
412 147 m 1
 278 283 l 1
 569 583 l 1
 278 882 l 1
 412 1020 l 1
 713 725 l 1
 1013 1020 l 1
 1149 881 l 1
 857 583 l 1
 931 511 1076 357 1149 284 c 1
 1013 147 l 1
 713 441 l 1
 412 147 l 1
EndSplineSet
EndChar

StartChar: n
Encoding: 78 110 240
Width: 1254
VWidth: 0
Flags: W
HStem: 0 21G<133 395 866 1129> 928 198<542.342 804.208> 1079 20G<133 348.173>
VStem: 133 262<0 813.738> 866 263<0 857.998>
LayerCount: 2
Fore
SplineSet
133 0 m 1xd8
 133 1099 l 1
 344 1099 l 1xb8
 373 960 l 1
 466 1052 581 1126 746 1126 c 0
 1006 1126 1129 970 1129 695 c 2
 1129 0 l 1
 866 0 l 1
 866 0 866 651 866 663 c 0
 865 827 825 928 672 928 c 0
 555 928 455 861 414 775 c 1
 398 709 395 630 395 535 c 2
 395 0 l 1
 133 0 l 1xd8
EndSplineSet
EndChar

StartChar: nine
Encoding: 25 57 244
Width: 1215
VWidth: 0
Flags: W
HStem: 0 21G<243 577.055> 555 184<452.714 684.444> 1291 199<461.728 788.681>
VStem: 82 263<851.965 1172.85> 243 319<0 319> 896 269<846.264 1187.24>
DStem2: 243 0 562 0 0.60918 0.793032<194.328 728.848>
LayerCount: 2
Fore
SplineSet
624 739 m 0xf4
 819 739 896 860 896 1024 c 0
 896 1184 804 1291 629 1291 c 0
 449 1291 345 1179 345 1019 c 0
 345 851 435 739 624 739 c 0xf4
243 0 m 1xec
 687 578 l 1
 646 564 615 555 568 555 c 0
 282 555 82 745 82 1020 c 0xf4
 82 1308 303 1490 616 1490 c 0
 940 1490 1165 1302 1165 1009 c 0
 1165 822 1076 687 976 550 c 0
 952 518 562 0 562 0 c 1
 243 0 l 1xec
EndSplineSet
EndChar

StartChar: notequal
Encoding: 406 8800 245
Width: 1313
VWidth: 0
Flags: W
HStem: 312 167<154 421 682 1167> 723 169<154 624 885 1166>
DStem2: 299 68 462 44 0.446554 0.894757<51.3142 273.695 538.775 731.196 998.065 1217.58>
LayerCount: 2
Fore
SplineSet
462 44 m 1
 299 68 l 1
 421 313 l 1
 154 313 l 1
 144 480 l 1
 503 480 l 1
 624 723 l 1
 154 723 l 1
 142 892 l 1
 702 892 l 1
 839 1152 l 1
 839 1152 1002 1130 1004 1130 c 1
 885 891 l 1
 1166 891 l 1
 1180 722 l 1
 805 722 l 1
 682 479 l 1
 1167 479 l 1
 1180 312 l 1
 601 312 l 1
 462 44 l 1
EndSplineSet
EndChar

StartChar: numbersign
Encoding: 3 35 247
Width: 1192
VWidth: 0
Flags: W
HStem: 404 179<61 255 478 636 863 1048> 898 179<139 343 574 733 956 1125> 1438 20G<450.801 650 837.115 1031>
VStem: 178 189<-15 174> 455 195<1263 1458> 557 196<-15 181> 841 190<1268 1458>
DStem2: 178 -15 367 -15 0.188674 0.98204<35.6594 426.003 643.862 927.734 1147.1 1498.81> 557 -15 753 -15 0.189317 0.981916<37.1062 426.379 645.117 930.791 1147.79 1500.13>
LayerCount: 2
Fore
SplineSet
478 583 m 1xf2
 672 583 l 1
 733 899 l 1
 540 899 l 1
 478 583 l 1xf2
178 -15 m 1
 255 404 l 1
 53 404 l 1
 61 583 l 1
 288 583 l 1
 343 898 l 1
 131 898 l 1
 139 1077 l 1
 375 1077 l 1
 455 1458 l 1
 650 1458 l 1xfa
 574 1077 l 1
 767 1077 l 1
 841 1458 l 1
 1031 1458 l 1
 956 1077 l 1
 1137 1077 l 1
 1125 899 l 1
 923 899 l 1
 863 583 l 1
 1058 583 l 1
 1048 404 l 1
 833 404 l 1
 753 -15 l 1
 557 -15 l 1xf6
 636 404 l 1
 446 404 l 1
 367 -15 l 1
 178 -15 l 1
EndSplineSet
EndChar

StartChar: o
Encoding: 79 111 248
Width: 1222
VWidth: 0
Flags: W
HStem: -21 199<468.724 756.996> 928 198<464.466 759.996>
VStem: 81 261<318.149 790.74> 879 262<316.351 788.946>
LayerCount: 2
Fore
SplineSet
605 -21 m 0
 275 -21 81 215 81 553 c 0
 81 903 272 1126 616 1126 c 0
 948 1126 1141 894 1141 553 c 0
 1141 207 948 -21 605 -21 c 0
612 178 m 0
 792 178 879 315 879 553 c 0
 879 793 792 928 610 928 c 0
 431 928 342 793 342 552 c 0
 342 316 431 178 612 178 c 0
EndSplineSet
EndChar

StartChar: oe
Encoding: 263 339 253
Width: 1880
VWidth: 0
Flags: W
HStem: -21 178<454.849 734.202 1250.97 1623.38> 500 146<1113 1588> 942 178<454.716 741.559 1225.09 1502.25>
VStem: 69 247<319.267 779.707> 875 235<318.914 500 646 786.75> 1588 233<646 843.555>
LayerCount: 2
Fore
SplineSet
1113 646 m 1
 1588 646 l 1
 1588 656 l 1
 1587 850 1509 942 1364 942 c 0
 1252 942 1129 870 1113 646 c 1
595 157 m 0
 765 157 875 306 875 552 c 0
 875 806 767 942 594 942 c 0
 422 942 316 797 316 551 c 0
 316 310 424 157 595 157 c 0
595 -21 m 0
 237 -21 69 240 69 552 c 0
 69 874 238 1120 596 1120 c 0
 784 1120 916 1044 992 927 c 1
 1065 1051 1200 1118 1380 1120 c 1
 1695 1120 1821 887 1821 587 c 0
 1821 562 1819 505 1819 500 c 1
 1110 500 l 1
 1114 283 1226 158 1417 158 c 0
 1557 158 1654 209 1722 261 c 1
 1794 106 l 1
 1700 33 1591 -21 1410 -21 c 0
 1206 -21 1064 51 990 177 c 1
 919 61 782 -21 595 -21 c 0
EndSplineSet
EndChar

StartChar: ogonek
Encoding: 351 731 254
Width: 577
VWidth: 0
Flags: W
HStem: -392 140<299.682 511.289>
VStem: 114 175<-241.883 -89.3842>
LayerCount: 2
Fore
SplineSet
321 -392 m 0
 208 -392 114 -338 114 -220 c 0
 114 -91 224 -12 305 34 c 1
 413 34 l 1
 327 -30 289 -102 289 -165 c 0
 289 -207 319 -252 371 -252 c 0
 432 -252 500 -220 513 -215 c 1
 513 -355 l 1
 454 -378 385 -392 321 -392 c 0
EndSplineSet
EndChar

StartChar: one
Encoding: 17 49 258
Width: 686
VWidth: 0
Flags: W
HStem: 1 21G<303 556> 1110 21G<43 52> 1439 20G<326 556>
VStem: 303 253<1 1220>
LayerCount: 2
Fore
SplineSet
303 1 m 1
 303 1220 l 1
 283 1207 61 1115 43 1110 c 1
 43 1310 l 1
 65 1320 316 1445 336 1459 c 1
 556 1459 l 1
 556 1 l 1
 303 1 l 1
EndSplineSet
EndChar

StartChar: onehalf
Encoding: 123 189 259
Width: 1805
VWidth: 0
Flags: W
HStem: -29 134<1374 1693> 0 21G<310 523.855> 601 132<125 267 458 599> 684 151<1250.06 1507.15> 1451 20G<283 458 1317.12 1529>
VStem: 267 191<733 1321> 310 200<0 200> 1331 198<1273 1471> 1542 168<436.457 650.949>
DStem2: 310 0 510 0 0.570197 0.821508<114.039 1790.61>
LayerCount: 2
Fore
SplineSet
310 0 m 1x4b80
 1331 1471 l 1
 1529 1471 l 1
 510 0 l 1
 310 0 l 1x4b80
1136 -29 m 1x9980
 1137 107 l 1
 1336 276 1542 411 1542 555 c 0
 1542 639 1469 684 1402 684 c 0
 1329 684 1242 653 1192 587 c 1
 1126 704 l 1
 1185 792 1295 835 1424 835 c 0
 1572 835 1710 735 1710 561 c 0
 1710 368 1567 265 1374 105 c 1
 1709 105 l 1
 1693 -29 l 1
 1136 -29 l 1x9980
125 601 m 1x2d80
 125 733 l 1
 267 733 l 1
 267 1321 l 1
 258 1315 117 1234 106 1228 c 1
 106 1376 l 1
 122 1384 278 1474 288 1484 c 1
 458 1484 l 1
 458 733 l 1
 599 733 l 1
 599 601 l 1
 125 601 l 1x2d80
EndSplineSet
EndChar

StartChar: onequarter
Encoding: 122 188 260
Width: 1731
VWidth: 0
Flags: W
HStem: 0 21G<305 519.8> 182 136<1176 1386 1547 1662> 601 148<104 246 437 578> 1451 20G<289 437 1313.1 1521>
VStem: 246 191<749 1304> 305 201<0 201> 1327 194<1277 1471> 1388 157<10 182 318 646>
DStem2: 305 0 506 0 0.570574 0.821246<114.685 1791.18> 985 324 1176 318 0.581807 0.813327<106.245 495.778>
LayerCount: 2
Fore
SplineSet
1176 318 m 1xf0
 1386 318 l 1
 1386 318 1386 639 1387 646 c 1
 1176 318 l 1xf0
305 0 m 1xf6
 1327 1471 l 1
 1521 1471 l 1
 506 0 l 1
 305 0 l 1xf6
1388 10 m 1xf1
 1388 182 l 1
 985 182 l 1
 985 324 l 1
 1372 865 l 1
 1547 865 l 1
 1547 318 l 1
 1662 318 l 1
 1664 182 l 1
 1546 182 l 1
 1545 10 l 1
 1388 10 l 1xf1
104 601 m 1
 104 749 l 1
 246 749 l 1
 246 1304 l 1
 237 1298 96 1234 85 1228 c 1
 85 1376 l 1
 101 1384 284 1474 294 1484 c 1
 437 1484 l 1
 437 749 l 1xf8
 578 749 l 1
 578 601 l 1
 104 601 l 1
EndSplineSet
EndChar

StartChar: ordfeminine
Encoding: 105 170 261
Width: 757
VWidth: 0
Flags: W
HStem: 536 120<112 673> 750 128<242.119 436.752> 1106 105<297.845 506> 1384 130<168.805 484.503>
VStem: 75 156<889.073 1048.66> 506 163<942.818 1106 1206.07 1358.66> 535 135<764 835.68>
LayerCount: 2
Fore
SplineSet
317 878 m 0xfc
 385 878 456 921 506 995 c 1
 506 1106 l 1
 341 1084 231 1066 231 968 c 0
 231 908 269 878 317 878 c 0xfc
112 536 m 1
 112 656 l 1
 673 656 l 1
 673 536 l 1
 112 536 l 1
299 750 m 0
 178 750 75 823 75 963 c 0
 75 1174 322 1190 506 1211 c 1
 506 1243 l 1
 505 1346 467 1384 382 1384 c 0
 317 1384 233 1367 133 1326 c 1
 91 1436 l 1
 183 1486 294 1514 399 1514 c 0
 546 1514 669 1451 669 1268 c 2
 669 889 l 2xfc
 669 885 669 787 670 764 c 1
 535 764 l 1xfa
 518 849 l 1
 475 790 380 750 299 750 c 0
EndSplineSet
EndChar

StartChar: ordmasculine
Encoding: 120 186 262
Width: 865
VWidth: 0
Flags: W
HStem: 744 155<313.873 560.382> 1358 154<310.009 560.038>
VStem: 69 176<966.225 1286.48> 629 174<966.19 1285.33>
LayerCount: 2
Fore
SplineSet
439 744 m 0
 203 744 69 903 69 1131 c 0
 69 1354 209 1512 438 1512 c 0
 669 1512 803 1352 803 1127 c 0
 803 906 666 744 439 744 c 0
439 899 m 0
 570 899 629 995 629 1125 c 0
 629 1261 569 1358 435 1358 c 0
 304 1358 245 1259 245 1129 c 0
 245 993 303 899 439 899 c 0
EndSplineSet
EndChar

StartChar: oslash
Encoding: 182 248 263
Width: 1193
VWidth: 0
Flags: W
HStem: -16 179<482.876 747.703> 940 179<449.449 718.907>
VStem: 71 247<316.084 786.059> 878 247<318.324 792.865>
DStem2: 240 -181 302 -215 0.412205 0.911091<0 244.007 449.566 1178.65>
LayerCount: 2
Fore
SplineSet
599 163 m 0
 780 163 878 307 878 551 c 0
 878 693 846 802 783 867 c 1
 482 188 l 1
 516 171 555 163 599 163 c 0
420 231 m 1
 721 913 l 1
 686 931 645 940 598 940 c 0
 419 940 318 799 318 551 c 0
 318 406 353 296 420 231 c 1
302 -215 m 1
 240 -181 l 1
 336 41 l 1
 163 130 71 316 71 550 c 0
 71 888 256 1119 601 1119 c 0
 675 1119 741 1108 800 1089 c 1
 894 1269 l 1
 963 1246 l 1
 870 1059 l 1
 1038 970 1125 787 1125 552 c 0
 1125 220 942 -16 595 -16 c 0
 525 -16 460 -6 403 14 c 1
 302 -215 l 1
EndSplineSet
EndChar

StartChar: p
Encoding: 80 112 265
Width: 1256
VWidth: 0
Flags: W
HStem: -457 21G<133 395> -21 200<523.966 793.596> 928 199<534.947 793.712> 1079 20G<133 361.636>
VStem: 133 262<-444 132.093 311.951 802.203> 913 262<323.035 793.936>
LayerCount: 2
Fore
SplineSet
661 179 m 0xec
 814 179 913 311 913 557 c 0
 913 811 812 928 656 928 c 0
 494 928 395 823 393 574 c 1
 393 296 488 179 661 179 c 0xec
133 -457 m 1
 133 1099 l 1
 358 1099 l 1xdc
 386 945 l 1
 458 1060 582 1127 729 1127 c 0
 1006 1127 1175 881 1175 555 c 0
 1175 221 1004 -21 717 -21 c 0
 574 -21 460 42 387 133 c 1
 388 115 395 10 395 -29 c 2
 395 -444 l 1
 133 -457 l 1
EndSplineSet
EndChar

StartChar: paragraph
Encoding: 116 182 266
Width: 1201
VWidth: 0
Flags: W
HStem: 1315 171<613 778 944 1026>
VStem: 78 535<963.765 1303.75> 419 194<-150 786.758> 778 166<-151 1315>
LayerCount: 2
Fore
SplineSet
419 -150 m 1xb0
 419 782 l 1xb0
 212 799 78 952 78 1144 c 0xd0
 78 1396 308 1486 607 1486 c 2
 1026 1486 l 1
 1026 1315 l 1
 944 1315 l 1
 944 -151 l 1
 778 -151 l 1
 778 1315 l 1
 613 1315 l 1
 613 -151 l 1
 419 -150 l 1xb0
EndSplineSet
EndChar

StartChar: parenleft
Encoding: 8 40 267
Width: 650
VWidth: 0
Flags: W
VStem: 93 248<256.084 944.906> 376 234<-276 -42 1254 1488>
LayerCount: 2
Fore
SplineSet
376 -276 m 1
 207 -45 93 247 93 597 c 0
 93 952 206 1251 375 1488 c 1
 611 1488 l 1
 498 1326 341 956 341 599 c 0
 341 247 501 -121 610 -276 c 1
 376 -276 l 1
EndSplineSet
EndChar

StartChar: parenright
Encoding: 9 41 268
Width: 650
VWidth: 0
Flags: W
VStem: 41 233<-276 -43 1255 1488> 309 249<255.523 944.345>
LayerCount: 2
Fore
SplineSet
41 -276 m 1
 149 -121 309 246 309 599 c 0
 309 956 152 1326 40 1488 c 1
 275 1488 l 1
 444 1250 558 950 558 597 c 0
 558 246 442 -46 274 -276 c 1
 41 -276 l 1
EndSplineSet
EndChar

StartChar: partialdiff
Encoding: 398 8706 269
Width: 1174
VWidth: 0
Flags: W
HStem: -25 183<379.401 640.951> 867 180<466.06 750.975> 1389 181<401.628 719.941>
VStem: 86 207<254.876 657.056> 871 209<917 1200.87>
LayerCount: 2
Fore
SplineSet
504 158 m 0
 724 158 827 436 854 674 c 1
 820 777 743 867 614 867 c 0
 416 867 293 662 293 440 c 0
 293 276 362 158 504 158 c 0
499 -25 m 0
 223 -25 86 178 86 442 c 0
 86 764 280 1047 590 1047 c 0
 730 1047 838 960 871 917 c 1
 871 922 870 948 870 955 c 0
 866 1202 780 1389 572 1389 c 0
 456 1389 363 1327 288 1273 c 1
 273 1466 l 1
 360 1519 461 1570 596 1570 c 0
 957 1570 1080 1264 1080 870 c 0
 1080 444 910 -25 499 -25 c 0
EndSplineSet
EndChar

StartChar: percent
Encoding: 5 37 270
Width: 1790
VWidth: 0
Flags: W
HStem: -17 159<1263.72 1497.78> 608 158<1255.4 1497.06> 677 159<295.333 516.016> 1304 157<299.934 519.317>
VStem: 54 180<901.169 1239.13> 307 213<-32 181> 583 189<905.374 1234.73> 1008 190<209.242 552.143> 1208 220<1230 1450> 1563 178<212.116 538.304>
DStem2: 307 -32 520 -32 0.522684 0.852527<111.332 1734.38>
LayerCount: 2
Fore
SplineSet
1379 -17 m 0xdfc0
 1143 -17 1008 155 1008 372 c 0
 1008 606 1107 766 1371 766 c 0
 1618 766 1741 597 1741 376 c 0
 1741 158 1608 -17 1379 -17 c 0xdfc0
1382 142 m 0
 1508 142 1563 246 1563 377 c 0
 1563 508 1504 608 1370 608 c 0
 1232 608 1198 503 1198 372 c 0
 1198 240 1255 142 1382 142 c 0
307 -32 m 1
 1208 1450 l 1
 1428 1449 l 1
 520 -32 l 1
 307 -32 l 1
404 677 m 0xbfc0
 181 677 54 847 54 1067 c 0
 54 1288 188 1461 409 1461 c 0
 640 1461 772 1291 772 1070 c 0
 772 850 630 677 404 677 c 0xbfc0
407 836 m 0
 528 836 583 939 583 1069 c 0
 583 1202 528 1304 408 1304 c 0
 288 1304 234 1199 234 1067 c 0
 234 934 287 836 407 836 c 0
EndSplineSet
EndChar

StartChar: period
Encoding: 14 46 271
Width: 473
VWidth: 0
Flags: W
HStem: -18 307<137.134 350.664>
VStem: 90 307<27.25 242.625>
LayerCount: 2
Fore
SplineSet
245 -18 m 0
 157 -18 90 52 90 134 c 0
 90 217 156 289 245 289 c 0
 331 289 397 217 397 134 c 0
 397 52 331 -18 245 -18 c 0
EndSplineSet
EndChar

StartChar: periodcentered
Encoding: 117 183 272
Width: 422
VWidth: 0
Flags: W
HStem: 488 252<90 332>
VStem: 90 242<488 740>
LayerCount: 2
Fore
SplineSet
90 488 m 1
 90 740 l 1
 332 740 l 1
 332 488 l 1
 90 488 l 1
EndSplineSet
EndChar

StartChar: pi
Encoding: 358 960 273
Width: 1421
VWidth: 0
Flags: W
HStem: -7 200<1134.62 1285.8> 929 178<133.732 345 566 921 1125 1321>
VStem: 345 221<463.631 929> 919 206<197.983 927>
LayerCount: 2
Fore
SplineSet
1154 -7 m 0
 962 -7 919 125 919 312 c 2
 921 929 l 1
 566 929 l 1
 552 591 518 206 409 1 c 1
 195 1 l 1
 301 217 343 856 345 934 c 1
 227 928 159 902 84 858 c 1
 58 1033 l 1
 148 1099 252 1107 426 1107 c 2
 1321 1107 l 1
 1321 927 l 1
 1125 927 l 1
 1125 321 l 2
 1125 240 1133 193 1196 193 c 0
 1229 193 1268 206 1300 216 c 1
 1298 168 1286 7 1286 7 c 1
 1241 -1 1200 -7 1154 -7 c 0
EndSplineSet
EndChar

StartChar: plus
Encoding: 11 43 274
Width: 1180
VWidth: 0
Flags: W
HStem: 554 191<83 492 691 1098>
VStem: 492 198<146 554 745 1153>
LayerCount: 2
Fore
SplineSet
492 146 m 1
 492 554 l 1
 83 554 l 1
 83 745 l 1
 493 745 l 1
 493 1153 l 1
 691 1153 l 1
 691 745 l 1
 1098 745 l 1
 1098 554 l 1
 690 554 l 1
 690 146 l 1
 492 146 l 1
EndSplineSet
EndChar

StartChar: plusminus
Encoding: 112 177 275
Width: 1288
VWidth: 0
Flags: W
HStem: 0 177<180 1109> 636 192<180 544 744 1109>
VStem: 544 200<261 636 828 1196>
LayerCount: 2
Fore
SplineSet
180 0 m 1
 180 177 l 1
 1109 177 l 1
 1109 0 l 1
 180 0 l 1
544 261 m 1
 544 636 l 1
 180 636 l 1
 180 828 l 1
 544 828 l 1
 544 1196 l 1
 743 1196 l 1
 743 828 l 1
 1109 828 l 1
 1109 636 l 1
 744 636 l 1
 744 261 l 1
 544 261 l 1
EndSplineSet
EndChar

StartChar: product
Encoding: 400 8719 276
Width: 1529
VWidth: 0
Flags: W
HStem: 1257 193<438 1107>
VStem: 220 218<-247 1257> 1107 220<-247 1257>
LayerCount: 2
Fore
SplineSet
220 -247 m 1
 220 1450 l 1
 1327 1450 l 1
 1327 -247 l 1
 1107 -247 l 1
 1107 1257 l 1
 438 1257 l 1
 438 -247 l 1
 220 -247 l 1
EndSplineSet
EndChar

StartChar: q
Encoding: 81 113 277
Width: 1259
VWidth: 0
Flags: W
HStem: -457 21G<862 1125> -22 199<463.727 738.876> 926 200<465.406 737.247> 1079 20G<892 1125>
VStem: 82 261<318.829 786.94> 862 263<-444 147.566 289.322 809.068> 895 230<1003.43 1099>
LayerCount: 2
Fore
SplineSet
606 177 m 0xe8
 771 177 869 279 872 535 c 1
 872 812 778 926 603 926 c 0
 448 926 343 808 343 552 c 0
 343 302 445 177 606 177 c 0xe8
862 -457 m 1xdc
 862 8 l 2
 862 51 864 98 869 150 c 1
 835 94 752 -22 555 -22 c 0
 269 -22 82 215 82 555 c 0
 82 886 247 1126 549 1126 c 0xec
 724 1126 823 1038 874 959 c 1
 895 1099 l 1
 1125 1099 l 1xda
 1125 -444 l 1
 862 -457 l 1xdc
EndSplineSet
EndChar

StartChar: question
Encoding: 31 63 278
Width: 887
VWidth: 0
Flags: W
HStem: -18 307<268.134 482.05> 1303 187<194.029 539.92>
VStem: 221 307<27.25 242.625> 606 209<970.524 1238.93>
LayerCount: 2
Fore
SplineSet
376 -18 m 0
 288 -18 221 52 221 134 c 0
 221 217 288 289 376 289 c 0
 463 289 528 217 528 134 c 0
 528 52 463 -18 376 -18 c 0
323 448 m 1
 360 735 606 927 606 1113 c 1
 605 1230 529 1303 399 1303 c 0
 264 1303 179 1254 121 1218 c 1
 51 1384 l 1
 153 1450 262 1490 427 1490 c 0
 610 1490 815 1381 815 1148 c 0
 815 907 590 754 434 448 c 1
 323 448 l 1
EndSplineSet
EndChar

StartChar: quotedbl
Encoding: 2 34 280
Width: 784
VWidth: 0
Flags: W
HStem: 955 515<143 302 487 646>
VStem: 143 159<955 1165.94> 487 159<955 1178.73>
LayerCount: 2
Fore
SplineSet
487 955 m 1
 454 1470 l 1
 677 1470 l 1
 646 955 l 1
 487 955 l 1
143 955 m 1
 108 1470 l 1
 332 1470 l 1
 302 955 l 1
 143 955 l 1
EndSplineSet
EndChar

StartChar: quotedblbase
Encoding: 388 8222 281
Width: 1005
VWidth: 0
Flags: W
HStem: -280 492<269 331 630 692>
LayerCount: 2
Fore
SplineSet
512 -280 m 1
 630 212 l 1
 855 212 l 1
 692 -280 l 1
 512 -280 l 1
158 -280 m 1
 269 212 l 1
 500 212 l 1
 331 -280 l 1
 158 -280 l 1
EndSplineSet
EndChar

StartChar: quotedblleft
Encoding: 386 8220 282
Width: 953
VWidth: 0
Flags: HW
HStem: 1013 493<625 684 914 976>
VStem: 176 619
LayerCount: 2
Fore
SplineSet
495 1466.40039062 m 5
 395 973.400390625 l 5
 176 973.400390625 l 5
 336 1466.40039062 l 5
 495 1466.40039062 l 5
795 1466.40039062 m 5
 687 973.400390625 l 5
 477 973.400390625 l 5
 625 1466.40039062 l 5
 795 1466.40039062 l 5
EndSplineSet
EndChar

StartChar: quotedblright
Encoding: 387 8221 283
Width: 953
VWidth: 0
Flags: HW
HStem: 1013 493<284 346 576 635>
VStem: 176 619
LayerCount: 2
Fore
SplineSet
476 973.400390625 m 5
 576 1466.40039062 l 5
 795 1466.40039062 l 5
 635 973.400390625 l 5
 476 973.400390625 l 5
176 973.400390625 m 5
 284 1466.40039062 l 5
 494 1466.40039062 l 5
 346 973.400390625 l 5
 176 973.400390625 l 5
EndSplineSet
EndChar

StartChar: quoteleft
Encoding: 383 8216 284
Width: 442
VWidth: 0
Flags: HW
HStem: 1013 493<219 278>
VStem: 60 326
LayerCount: 2
Fore
SplineSet
386 1466.39941406 m 5
 278 973.399414062 l 5
 60 973.399414062 l 5
 219 1466.39941406 l 5
 386 1466.39941406 l 5
EndSplineSet
EndChar

StartChar: quoteright
Encoding: 384 8217 285
Width: 442
VWidth: 0
Flags: HW
HStem: 1013 493<168 227>
VStem: 60 326
LayerCount: 2
Fore
SplineSet
60 973.400390625 m 5
 168 1466.40039062 l 5
 386 1466.40039062 l 5
 227 973.400390625 l 5
 60 973.400390625 l 5
EndSplineSet
EndChar

StartChar: quotesinglbase
Encoding: 385 8218 286
Width: 557
VWidth: 0
Flags: W
HStem: -280 492<224 285>
VStem: 116 328
LayerCount: 2
Fore
SplineSet
116 -280 m 1
 224 212 l 1
 444 212 l 1
 285 -280 l 1
 116 -280 l 1
EndSplineSet
EndChar

StartChar: quotesingle
Encoding: 7 39 287
Width: 440
VWidth: 0
Flags: W
HStem: 929 535<140 292>
VStem: 105 214<1244.86 1464>
LayerCount: 2
Fore
SplineSet
140 929 m 1
 105 1464 l 1
 319 1464 l 1
 292 929 l 1
 140 929 l 1
EndSplineSet
EndChar

StartChar: r
Encoding: 82 114 288
Width: 798
VWidth: 0
Flags: W
HStem: 0 21G<134 396> 887 217<520.914 767>
VStem: 134 262<0 771.108>
LayerCount: 2
Fore
SplineSet
134 0 m 1
 134 0 134 1078 134 1099 c 1
 354 1099 l 1
 388 931 l 1
 458 1043 564 1104 701 1104 c 0
 727 1104 751 1103 771 1100 c 1
 767 881 l 1
 740 885 712 887 684 887 c 0
 484 887 396 772 396 596 c 2
 396 0 l 1
 134 0 l 1
EndSplineSet
EndChar

StartChar: radical
Encoding: 402 8730 290
Width: 1288
VWidth: 0
Flags: W
VStem: 1040 174<1460 1634>
DStem2: 396 871 271 682 0.357709 -0.933833<131.781 782.312> 659 134 753 -156 0.249403 0.9684<0 1547.62>
LayerCount: 2
Fore
SplineSet
592 -156 m 1
 271 682 l 1
 102 654 l 1
 76 811 l 1
 396 871 l 1
 627 236 l 1
 659 134 l 1
 693 274 915 1143 1040 1634 c 1
 1214 1634 l 1
 753 -156 l 1
 592 -156 l 1
EndSplineSet
EndChar

StartChar: registered
Encoding: 109 174 293
Width: 1735
VWidth: 0
Flags: W
HStem: -22 100<625.441 1106.79> 688 125<704 882.692> 1100 126<703 1035.63> 1404 101<624.556 1105.91>
VStem: 89 116<501.525 980.784> 556 148<271 688 813 1100> 1064 150<852.6 1067.99> 1529 116<501.095 980.56>
LayerCount: 2
Fore
SplineSet
865 -22 m 0
 446 -22 89 293 89 741 c 0
 89 1188 445 1505 864 1505 c 0
 1287 1505 1645 1188 1645 741 c 0
 1645 293 1288 -22 865 -22 c 0
865 78 m 0
 1252 78 1529 375 1529 741 c 0
 1529 1106 1251 1404 864 1404 c 0
 482 1404 205 1106 205 742 c 0
 205 376 483 78 865 78 c 0
703 813 m 1
 823 813 l 2
 973 813 1064 834 1064 962 c 0
 1064 1094 979 1100 814 1100 c 2
 703 1100 l 1
 703 813 l 1
556 271 m 1
 556 1226 l 1
 856 1226 l 2
 1074 1226 1214 1153 1214 964 c 0
 1214 820 1157 739 1000 705 c 1
 1060 632 1165 434 1254 271 c 1
 1089 271 l 1
 1077 292 1006 426 968 499 c 1
 916 595 871 679 856 688 c 1
 704 688 l 1
 704 271 l 1
 556 271 l 1
EndSplineSet
EndChar

StartChar: ring
Encoding: 350 730 294
Width: 662
VWidth: 0
Flags: W
HStem: 1158 93<242.064 417.353> 1473 89<244.286 414.274>
VStem: 109 114<1270.32 1452.74> 436 114<1270.44 1452.49>
LayerCount: 2
Fore
SplineSet
330 1158 m 0
 191 1158 109 1255 109 1362 c 0
 109 1468 189 1562 330 1562 c 0
 470 1562 550 1468 550 1362 c 0
 550 1255 468 1158 330 1158 c 0
330 1251 m 0
 401 1251 436 1304 436 1361 c 0
 436 1417 400 1473 330 1473 c 0
 259 1473 223 1419 223 1361 c 0
 223 1303 259 1251 330 1251 c 0
EndSplineSet
EndChar

StartChar: s
Encoding: 83 115 295
Width: 985
VWidth: 0
Flags: W
HStem: -20 187<238.064 625.662> 939 187<373.279 741.847>
VStem: 99 248<754.192 911.845> 661 250<202.904 380.907>
DStem2: 558 678 385 488 0.933346 -0.358979<-238.638 210.376>
LayerCount: 2
Fore
SplineSet
484 -20 m 0
 317 -20 188 10 95 63 c 1
 122 260 l 1
 203 216 357 167 476 167 c 0
 589 167 660 209 661 295 c 0
 661 376 598 407 442 467 c 0
 431 471 398 483 385 488 c 0
 191 563 99 645 99 816 c 0
 99 1019 255 1126 510 1126 c 0
 652 1126 772 1100 879 1047 c 1
 814 866 l 1
 730 905 620 939 515 939 c 0
 413 939 347 906 347 832 c 0
 347 759 408 733 558 678 c 0
 577 671 597 664 618 656 c 0
 811 585 911 494 911 325 c 0
 910 105 756 -20 484 -20 c 0
EndSplineSet
EndChar

StartChar: section
Encoding: 102 167 301
Width: 1034
VWidth: 0
Flags: W
HStem: -31 181<222.226 627.666> 1370 181<404.054 792.932>
VStem: 133 213<708.759 900.015> 150 230<1181.75 1344.09> 703 211<633.037 824.652>
LayerCount: 2
Fore
SplineSet
607 589 m 1xe8
 668 630 703 677 703 731 c 0
 703 827 589 885 444 940 c 1
 386 910 346 859 346 802 c 0
 346 723 426 666 546 614 c 0
 561 608 591 595 607 589 c 1xe8
472 -31 m 0
 346 -31 230 -7 138 37 c 1
 138 228 l 1
 229 185 364 150 463 150 c 0
 575 150 652 183 663 250 c 1
 682 320 628 366 470 435 c 1
 263 518 133 603 133 776 c 0xe8
 133 889 196 975 276 1026 c 1
 197 1081 150 1155 150 1261 c 0
 150 1453 307 1548 532 1551 c 1
 644 1554 764 1534 872 1493 c 1
 870 1480 838 1322 836 1309 c 1
 756 1344 654 1370 556 1370 c 0
 447 1370 380 1341 380 1264 c 0xd8
 380 1195 445 1153 584 1096 c 0
 773 1019 914 929 914 767 c 0
 914 649 855 563 776 509 c 1
 854 457 903 389 903 284 c 0
 903 74 718 -31 472 -31 c 0
EndSplineSet
EndChar

StartChar: semicolon
Encoding: 27 59 302
Width: 448
VWidth: 0
Flags: W
HStem: 841 264<125 389>
VStem: 125 264<841 1105>
LayerCount: 2
Fore
SplineSet
125 841 m 1
 125 1105 l 1
 389 1105 l 1
 389 841 l 1
 125 841 l 1
107 -322 m 1
 163 246 l 1
 389 246 l 1
 265 -322 l 1
 107 -322 l 1
EndSplineSet
EndChar

StartChar: seven
Encoding: 23 55 303
Width: 1036
VWidth: 0
Flags: W
HStem: 0 21G<237 512.25> 1258 201<77 679>
DStem2: 237 0 505 0 0.340815 0.94013<91.3385 1333.32>
LayerCount: 2
Fore
SplineSet
237 0 m 1
 679 1258 l 1
 75 1258 l 1
 77 1459 l 1
 977 1459 l 1
 977 1302 l 1
 505 0 l 1
 237 0 l 1
EndSplineSet
EndChar

StartChar: six
Encoding: 22 54 304
Width: 1205
VWidth: 0
Flags: W
HStem: -21 200<442.236 768.979> 731 188<544.057 777.208> 1447 20G<668.152 994>
VStem: 65 269<287.99 625.159> 684 310<1157 1467> 884 267<294.531 624.02>
DStem2: 268 942 540 894 0.621018 0.783796<131.295 669.837>
LayerCount: 2
Fore
SplineSet
603 179 m 0xf4
 782 179 884 292 884 453 c 0
 884 620 795 731 606 731 c 0
 411 731 334 615 334 451 c 0
 334 291 427 179 603 179 c 0xf4
615 -21 m 0
 291 -21 65 171 65 463 c 0
 65 657 156 794 268 942 c 0
 289 969 684 1467 684 1467 c 1
 994 1467 l 1xf8
 540 894 l 1
 581 908 615 919 662 919 c 0
 948 919 1151 731 1151 456 c 0
 1151 168 927 -21 615 -21 c 0
EndSplineSet
EndChar

StartChar: slash
Encoding: 15 47 305
Width: 949
VWidth: 0
Flags: W
DStem2: 52 -189 265 -189 0.350022 0.936741<74.5547 1789.57>
LayerCount: 2
Fore
SplineSet
52 -189 m 1
 674 1489 l 1
 892 1489 l 1
 265 -189 l 1
 52 -189 l 1
EndSplineSet
EndChar

StartChar: sterling
Encoding: 98 163 307
Width: 1149
VWidth: 0
Flags: W
HStem: 0 214<389 1097> 659 179<67 252 501 892> 1278 209<575.665 888.98>
VStem: 252 249<296.092 659 838 1198.39>
LayerCount: 2
Fore
SplineSet
85 0 m 1
 69 190 l 1
 202 246 252 313 252 469 c 2
 252 659 l 1
 67 659 l 1
 67 838 l 1
 252 838 l 1
 252 943 l 2
 252 1261 374 1487 703 1487 c 0
 861 1487 988 1431 1088 1347 c 1
 985 1178 l 1
 897 1237 815 1278 713 1278 c 0
 561 1278 501 1179 501 1017 c 2
 501 838 l 1
 892 838 l 1
 892 659 l 1
 501 659 l 1
 501 509 l 2
 501 382 471 283 389 213 c 1
 397 214 528 214 536 214 c 2
 1105 214 l 1
 1097 0 l 1
 85 0 l 1
EndSplineSet
EndChar

StartChar: summation
Encoding: 401 8721 308
Width: 1269
VWidth: 0
Flags: W
HStem: -336 196<354 1224> 1268 190<382 1181>
DStem2: 60 -216 354 -140 0.615195 0.788375<240.784 993.182> 382 1268 81 1333 0.61021 -0.792239<0 731.711>
LayerCount: 2
Fore
SplineSet
60 -336 m 1
 60 -216 l 1
 671 567 l 1
 81 1333 l 1
 81 1458 l 1
 1181 1458 l 1
 1181 1268 l 1
 382 1268 l 1
 921 575 l 1
 354 -140 l 1
 1224 -140 l 1
 1224 -336 l 1
 60 -336 l 1
EndSplineSet
EndChar

StartChar: t
Encoding: 84 116 309
Width: 803
VWidth: 0
Flags: W
HStem: -15 200<501.94 745.407> 940 159<454 727> 940 142<22 180.539>
VStem: 192 262<230.109 940>
LayerCount: 2
Fore
SplineSet
572 -15 m 0xd0
 270 -15 193 130 192 421 c 0
 192 940 l 1
 12 940 l 1
 22 1082 l 1xb0
 210 1099 l 1
 294 1397 l 1
 454 1398 l 1
 454 1099 l 1
 727 1099 l 1
 727 940 l 1
 454 940 l 1
 454 416 l 2
 454 255 489 185 623 185 c 0
 670 185 732 193 745 195 c 1
 752 7 l 1
 733 4 653 -15 572 -15 c 0xd0
EndSplineSet
EndChar

StartChar: thorn
Encoding: 188 254 312
Width: 1288
VWidth: 0
Flags: W
HStem: -19 195<522.291 845.77> 885 187<527.09 845.767>
VStem: 160 225<-431 118 321.605 739.621 938 1498> 975 231<320.819 740.861>
LayerCount: 2
Fore
SplineSet
694 176 m 0
 900 176 975 344 975 531 c 0
 975 718 900 885 696 885 c 0
 479 885 384 735 384 531 c 0
 384 326 474 176 694 176 c 0
160 -431 m 1
 160 1205 l 2
 160 1270 155 1498 155 1498 c 1
 385 1498 l 1
 385 938 l 1
 407 970 527 1072 711 1072 c 0
 1041 1072 1206 826 1206 521 c 0
 1206 230 1055 -19 726 -19 c 0
 520 -19 404 86 385 118 c 1
 385 -431 l 1
 160 -431 l 1
EndSplineSet
EndChar

StartChar: three
Encoding: 19 51 313
Width: 1078
VWidth: 0
Flags: W
HStem: -21 208<242.258 645.402> 664 202<283 611.366> 1282 208<234.709 628.311>
VStem: 713 255<953.512 1200.49> 742 267<278.18 559.686>
LayerCount: 2
Fore
SplineSet
485 -21 m 0xe8
 313 -21 151 27 63 103 c 1
 135 292 l 1
 208 231 349 187 486 187 c 0
 640 187 742 278 742 411 c 0xe8
 742 623 582 659 341 663 c 0
 336 663 288 664 283 664 c 1
 283 866 l 1
 339 866 l 1
 552 867 713 903 713 1077 c 0
 713 1183 632 1282 469 1282 c 0
 337 1282 220 1243 134 1188 c 1
 62 1378 l 1
 174 1447 306 1490 494 1490 c 0
 772 1490 968 1328 968 1098 c 0xf0
 968 939 885 822 728 770 c 1
 912 734 1009 578 1009 398 c 0
 1009 124 776 -21 485 -21 c 0xe8
EndSplineSet
EndChar

StartChar: threequarters
Encoding: 124 190 314
Width: 1683
VWidth: 0
Flags: W
HStem: 0 21G<279 495.773> 190 135<1126 1336 1498 1612> 621 140<165.41 453.881> 1004 136<224 440.086> 1330 141<165.881 443.16>
VStem: 279 203<0 203> 458 176<1161.88 1312.6> 483 169<792.503 975.244> 1299 196<1275 1471> 1339 157<11 190 325 665>
DStem2: 279 0 482 0 0.56982 0.82177<115.673 1790.04>
LayerCount: 2
Fore
SplineSet
1126 325 m 1xf8
 1336 325 l 1
 1336 387 1336 651 1337 665 c 1
 1126 325 l 1xf8
279 0 m 1xfc80
 1299 1471 l 1
 1495 1471 l 1
 482 0 l 1
 279 0 l 1xfc80
1339 11 m 1xf840
 1339 190 l 1
 935 190 l 1
 935 332 l 1
 1322 889 l 1
 1498 889 l 1
 1498 325 l 1
 1612 325 l 1
 1614 190 l 1
 1497 190 l 1
 1496 11 l 1
 1339 11 l 1xf840
343 621 m 0
 254 621 163 648 88 703 c 1
 137 825 l 1
 184 783 271 761 335 761 c 0
 423 761 483 802 483 889 c 0xf9
 483 972 415 1005 301 1005 c 1
 224 1004 l 1
 224 1140 l 1
 302 1140 l 2
 415 1140 458 1179 458 1239 c 0
 458 1293 420 1330 341 1330 c 0
 268 1330 183 1302 141 1270 c 1
 79 1377 l 1
 148 1434 253 1471 356 1471 c 0
 498 1471 634 1400 634 1244 c 0xfa
 634 1223 617 1116 510 1081 c 1
 588 1053 652 977 652 883 c 0xf9
 652 710 504 621 343 621 c 0
EndSplineSet
EndChar

StartChar: tilde
Encoding: 352 732 315
Width: 786
VWidth: 0
Flags: W
HStem: 1230 155<406.237 581.925> 1320 149<195.941 386.492>
VStem: 46 144<1230 1315.9> 586 147<1386.54 1469>
LayerCount: 2
Fore
SplineSet
46 1230 m 1xb0
 46 1333 62 1469 218 1469 c 0x70
 351 1469 497 1385 539 1385 c 0xb0
 573 1385 586 1416 586 1469 c 1
 733 1469 l 1x70
 733 1374 722 1230 567 1230 c 0xb0
 458 1230 309 1320 240 1320 c 0x70
 207 1320 191 1291 190 1230 c 1
 46 1230 l 1xb0
EndSplineSet
EndChar

StartChar: trademark
Encoding: 397 8482 316
Width: 1822
VWidth: 0
Flags: W
HStem: 1324 146<71 322 489 735>
VStem: 322 167<667 1324> 801 164<667 1210> 1502 161<667 1216>
DStem2: 1017 1470 965 1210 0.370219 -0.928944<222.274 588.84> 1235 923 1280 685 0.384735 0.923027<0 373.171>
LayerCount: 2
Fore
SplineSet
322 667 m 1
 322 1324 l 1
 71 1324 l 1
 70 1470 l 1
 735 1470 l 1
 735 1324 l 1
 489 1324 l 1
 489 667 l 1
 322 667 l 1
801 667 m 1
 801 1470 l 1
 1017 1470 l 1
 1235 923 l 1
 1463 1470 l 1
 1663 1470 l 1
 1663 667 l 1
 1502 667 l 1
 1502 1216 l 1
 1280 685 l 1
 1175 685 l 1
 965 1210 l 1
 965 667 l 1
 801 667 l 1
EndSplineSet
EndChar

StartChar: two
Encoding: 18 50 317
Width: 1054
VWidth: 0
Flags: W
HStem: 0 197<368 941> 1281 209<274.62 625.141>
VStem: 707 269<900.559 1203.03>
DStem2: 79 216 368 197 0.662142 0.749379<177.121 976.614>
LayerCount: 2
Fore
SplineSet
85 0 m 1
 79 216 l 1
 542 740 l 1
 652 858 707 954 707 1073 c 0
 707 1200 615 1281 482 1281 c 0
 353 1281 224 1226 150 1160 c 1
 75 1358 l 1
 177 1448 313 1490 497 1490 c 0
 776 1490 976 1346 976 1075 c 0
 976 869 841 696 698 547 c 1
 368 197 l 1
 959 197 l 1
 941 0 l 1
 85 0 l 1
EndSplineSet
EndChar

StartChar: u
Encoding: 85 117 318
Width: 1163
VWidth: 0
Flags: W
HStem: -21 198<433.782 730.184> 1079 20G<106 369 795 1057>
VStem: 106 263<243.888 1099> 795 262<244.662 1099>
LayerCount: 2
Fore
SplineSet
581 -21 m 0
 309 -21 106 113 106 400 c 2
 106 1099 l 1
 369 1099 l 1
 369 410 l 2
 369 244 436 177 584 177 c 0
 730 177 795 244 795 410 c 2
 795 1099 l 1
 1057 1099 l 1
 1057 400 l 2
 1057 115 854 -21 581 -21 c 0
EndSplineSet
EndChar

StartChar: underscore
Encoding: 63 95 326
Width: 1155
VWidth: 0
Flags: W
HStem: -318 174<72 1086>
LayerCount: 2
Fore
SplineSet
72 -318 m 1
 72 -144 l 1
 1086 -144 l 1
 1086 -318 l 1
 72 -318 l 1
EndSplineSet
EndChar

StartChar: uni00AD
Encoding: 108 173 328
Width: 745
VWidth: 0
Flags: W
HStem: 380 204<76 671>
VStem: 76 595<380 584>
LayerCount: 2
Fore
SplineSet
76 380 m 1
 76 584 l 1
 671 584 l 1
 671 380 l 1
 76 380 l 1
EndSplineSet
EndChar

StartChar: uni00B2
Encoding: 113 178 329
Width: 834
VWidth: 0
Flags: W
HStem: 574 141<386 686> 1283 156<270.031 504.386>
VStem: 536 164<1043.95 1251.3>
LayerCount: 2
Fore
SplineSet
146 574 m 1
 146 716 l 1
 345 849 536 1042 536 1159 c 0
 536 1239 467 1283 399 1283 c 0
 325 1283 245 1235 201 1169 c 1
 135 1289 l 1
 202 1376 286 1439 422 1439 c 0
 569 1439 700 1333 700 1163 c 0
 700 974 568 872 386 715 c 1
 701 715 l 1
 686 574 l 1
 146 574 l 1
EndSplineSet
EndChar

StartChar: uni00B3
Encoding: 114 179 330
Width: 800
VWidth: 0
Flags: W
HStem: 603 136<214.199 494.611> 1004 136<260 477.141> 1333 137<209.485 482.127>
VStem: 495 169<1161.54 1317.39> 525 158<770.721 969.142>
LayerCount: 2
Fore
SplineSet
380 603 m 0xe8
 291 603 199 630 125 685 c 1
 174 811 l 1
 221 767 314 739 378 739 c 0
 467 739 525 784 525 877 c 0xe8
 525 965 452 1005 337 1005 c 1
 260 1004 l 1
 260 1140 l 1
 339 1140 l 2
 451 1140 495 1178 495 1238 c 0
 495 1293 461 1333 382 1333 c 0
 309 1333 221 1302 179 1270 c 1
 131 1381 l 1
 200 1437 290 1470 391 1470 c 0
 534 1470 664 1401 664 1242 c 1xf0
 662 1170 624 1109 538 1081 c 1
 613 1052 683 973 683 876 c 0
 683 696 541 603 380 603 c 0xe8
EndSplineSet
EndChar

StartChar: uni00B9
Encoding: 119 185 331
Width: 743
VWidth: 0
Flags: W
HStem: 601 148<151 293 484 624> 1464 20G<335 484>
VStem: 293 191<749 1304>
LayerCount: 2
Fore
SplineSet
151 601 m 1
 151 749 l 1
 293 749 l 1
 293 1304 l 1
 283 1298 143 1234 132 1228 c 1
 132 1376 l 1
 147 1384 330 1474 340 1484 c 1
 484 1484 l 1
 484 749 l 1
 624 749 l 1
 624 601 l 1
 151 601 l 1
EndSplineSet
EndChar

StartChar: uni0237
Encoding: 345 567 372
Width: 527
VWidth: 0
Flags: W
HStem: -364 197<-38 140.229>
VStem: 173 237<-128.381 1089>
LayerCount: 2
Fore
SplineSet
-38 -364 m 1
 -43 -167 l 1
 -8 -167 l 2
 156 -167 173 -114 173 55 c 2
 173 1089 l 1
 410 1089 l 1
 410 98 l 2
 410 -217 336 -364 2 -364 c 2
 -38 -364 l 1
EndSplineSet
EndChar

StartChar: uni0307
Encoding: 354 775 373
Width: 515
VWidth: 0
Flags: W
HStem: 1222 216<157 358>
VStem: 157 201<1222 1438>
LayerCount: 2
Fore
SplineSet
157 1222 m 1
 157 1438 l 1
 358 1438 l 1
 358 1222 l 1
 157 1222 l 1
EndSplineSet
EndChar

StartChar: uni030F
Encoding: 355 783 374
Width: 982
VWidth: 0
Flags: W
HStem: 1197 339
LayerCount: 2
Fore
SplineSet
680 1197 m 1
 383 1536 l 1
 641 1536 l 1
 868 1197 l 1
 680 1197 l 1
316 1197 m 1
 1 1536 l 1
 276 1536 l 1
 487 1197 l 1
 316 1197 l 1
EndSplineSet
EndChar

StartChar: uni0311
Encoding: 356 785 375
Width: 713
VWidth: 0
Flags: W
HStem: 1337 132<252.944 455.354>
VStem: 63 167<1229 1310.56> 477 167<1229 1311.31>
LayerCount: 2
Fore
SplineSet
63 1229 m 1
 63 1389 210 1469 356 1469 c 0
 500 1469 644 1391 644 1229 c 1
 477 1229 l 1
 477 1303 413 1337 352 1337 c 0
 291 1337 230 1301 230 1229 c 1
 63 1229 l 1
EndSplineSet
EndChar

StartChar: uni0326
Encoding: 357 806 376
Width: 632
VWidth: 0
Flags: W
HStem: -658 517<219 277>
VStem: 109 335
LayerCount: 2
Fore
SplineSet
109 -658 m 1
 219 -141 l 1
 444 -141 l 1
 277 -658 l 1
 109 -658 l 1
EndSplineSet
EndChar

StartChar: uni2074
Encoding: 395 8308 391
Width: 867
VWidth: 0
Flags: W
HStem: 800 153<284 434 595 697>
VStem: 434 161<627 800 953 1197>
DStem2: 84 919 284 953 0.554336 0.832293<139.165 425.395>
LayerCount: 2
Fore
SplineSet
284 953 m 1
 434 953 l 1
 434 953 434 1190 434 1197 c 1
 284 953 l 1
436 627 m 1
 436 800 l 1
 84 800 l 1
 84 919 l 1
 435 1446 l 1
 595 1446 l 1
 595 953 l 1
 697 953 l 1
 711 800 l 1
 594 800 l 1
 593 627 l 1
 436 627 l 1
EndSplineSet
EndChar

StartChar: uni2206
Encoding: 399 8710 392
Width: 1277
VWidth: 0
Flags: W
HStem: 168 161<281 1002>
DStem2: 97 288 281 329 0.364196 0.931322<105.196 1137.99>
LayerCount: 2
Fore
SplineSet
281 329 m 1
 1002 328 l 1
 644 1296 l 1
 281 329 l 1
97 168 m 1
 97 288 l 1
 569 1495 l 1
 719 1495 l 1
 1187 289 l 1
 1186 168 l 1
 97 168 l 1
EndSplineSet
EndChar

StartChar: uniFB00
Encoding: 412 64256 393
Width: 1485
VWidth: 0
Flags: W
HStem: 0 21G<203 465 944 1206> 925 174<465 944 1206 1463> 925 154<46 158.538> 1338 195<621.787 750.691 1362.79 1491.69> 1349 203<502.282 750.102 1243.09 1490.97>
VStem: 203 262<0 925 1099 1311.81> 944 262<0 925 1099 1311.81>
LayerCount: 2
Fore
SplineSet
203 0 m 1xce
 203 925 l 1
 29 925 l 1
 46 1079 l 1xa6
 203 1099 l 1
 203 1160 l 1
 204 1419 292 1552 568 1552 c 0xce
 635 1552 706 1545 772 1533 c 1
 749 1338 l 1x96
 704 1344 658 1349 620 1349 c 0
 507 1349 465 1299 465 1174 c 2
 465 1099 l 1
 944 1099 l 1
 944 1160 l 2
 944 1419 1033 1552 1309 1552 c 0xce
 1375 1552 1446 1545 1513 1533 c 1
 1490 1338 l 1x96
 1445 1344 1399 1349 1361 1349 c 0
 1247 1349 1206 1299 1206 1174 c 2
 1206 1099 l 1
 1463 1099 l 1
 1463 925 l 1
 1206 925 l 1
 1206 0 l 1
 944 0 l 1
 944 925 l 1
 465 925 l 1
 465 0 l 1
 203 0 l 1xce
EndSplineSet
Ligature2: "'liga' Standard Ligatures lookup 0-1" f f
EndChar

StartChar: uniFB01
Encoding: 410 64257 394
Width: 1183
VWidth: 0
Flags: W
HStem: 0 21G<183 438 809 1063> 942 156<10 183 438 809> 1259 224<809 1064> 1354 190<474.421 645>
VStem: 183 255<0 942 1098 1321.55> 809 254<0 942 1259 1483>
LayerCount: 2
Fore
SplineSet
809 1259 m 1xec
 809 1483 l 1
 1064 1483 l 1
 1064 1259 l 1
 809 1259 l 1xec
183 0 m 1
 183 942 l 1
 10 942 l 1
 10 1098 l 1
 183 1098 l 1
 183 1131 l 1
 185 1407 233 1544 577 1544 c 2
 645 1544 l 1
 667 1354 l 1
 597 1354 l 2xdc
 456 1354 438 1303 438 1166 c 2
 438 1098 l 1
 1063 1098 l 1
 1063 0 l 1
 809 0 l 1
 809 942 l 1
 438 942 l 1
 438 0 l 1
 183 0 l 1
EndSplineSet
Ligature2: "'liga' Standard Ligatures lookup 0-1" f i
EndChar

StartChar: uniFB02
Encoding: 411 64258 395
Width: 1395
VWidth: 0
Flags: W
HStem: -13 194<1166.02 1366.75> 942 156<10 183 438 675> 1352 188<480.321 875.234>
VStem: 183 255<0 942 1098 1309.25> 879 255<212.779 1340.73>
LayerCount: 2
Fore
SplineSet
1234 -13 m 0
 922 -13 879 168 879 464 c 2
 879 1337 l 1
 826 1341 737 1352 650 1352 c 0
 479 1352 439 1300 438 1166 c 0
 438 1163 438 1101 438 1098 c 1
 675 1098 l 1
 675 942 l 1
 438 942 l 1
 438 0 l 1
 183 0 l 1
 183 942 l 1
 10 942 l 1
 10 1098 l 1
 183 1098 l 1
 183 1144 l 1
 185 1417 307 1540 609 1540 c 0
 786 1540 1037 1502 1134 1496 c 1
 1134 424 l 2
 1134 243 1146 181 1302 181 c 0
 1348 181 1353 184 1366 185 c 1
 1379 1 l 1
 1354 -2 1309 -13 1234 -13 c 0
EndSplineSet
Ligature2: "'liga' Standard Ligatures lookup 0-1" f l
EndChar

StartChar: v
Encoding: 86 118 399
Width: 1125
VWidth: 0
Flags: W
HStem: 0 21G<433.029 713.571> 1079 20G<3 306.5 831.5 1122>
DStem2: 496 500 3 1099 0.370225 -0.928942<-628.709 263.523> 281 1099 3 1099 0.370225 -0.928942<0 896.512> 647 503 706 0 0.354013 0.935241<-260.778 627.852>
LayerCount: 2
Fore
SplineSet
441 0 m 1
 3 1099 l 1
 281 1099 l 1
 332 954 447 647 496 500 c 0
 525 416 560 311 578 249 c 1
 584 271 637 476 647 503 c 0
 660 540 817 1022 846 1099 c 1
 1122 1099 l 1
 706 0 l 1
 441 0 l 1
EndSplineSet
EndChar

StartChar: w
Encoding: 87 119 400
Width: 1713
VWidth: 0
Flags: W
HStem: 0 21G<339.94 616.5 1083 1362.26> 1079 20G<13 285.236 714 1006.5 1431.6 1700>
VStem: 13 267<832 1099> 1437 263<836 1099>
DStem2: 491 293 604 0 0.278999 0.960291<0 644.399> 995 1099 856 858 0.269196 -0.963085<194.685 833.927>
LayerCount: 2
Fore
SplineSet
346 0 m 1
 13 1099 l 1
 280 1099 l 1
 491 293 l 1
 514 369 702 1025 726 1099 c 1
 995 1099 l 1
 1018 1025 1198 371 1220 296 c 1
 1437 1099 l 1
 1700 1099 l 1
 1356 0 l 1
 1095 0 l 1
 1071 77 879 780 856 858 c 1
 834 779 629 76 604 0 c 1
 346 0 l 1
EndSplineSet
EndChar

StartChar: x
Encoding: 88 120 405
Width: 1158
VWidth: 0
Flags: W
HStem: 0 21G<21 330.233 824.168 1137> 1079 20G<40 350.048 818.578 1124>
VStem: 21 296<0 296> 40 297<802 1099> 837 300<0 300 799 1099>
DStem2: 21 0 317 0 0.570423 0.821351<168.845 647.156> 337 1099 40 1099 0.570166 -0.82153<0 446.373> 581 725 749 564 0.573976 0.818872<0 450.326>
LayerCount: 2
Fore
SplineSet
21 0 m 1xe8
 412 563 l 1
 40 1099 l 1
 337 1099 l 1xd8
 581 725 l 1
 832 1099 l 1
 1124 1099 l 1
 749 564 l 1
 1137 0 l 1
 837 0 l 1
 581 399 l 1
 317 0 l 1
 21 0 l 1xe8
EndSplineSet
EndChar

StartChar: y
Encoding: 89 121 406
Width: 1116
VWidth: 0
Flags: W
HStem: -463 206<55 312.54> 1079 20G<-6 281.252 797.5 1109>
LayerCount: 2
Fore
SplineSet
191 -463 m 0
 145 -463 100 -460 55 -455 c 1
 42 -252 l 1
 79 -256 120 -257 159 -257 c 0
 277 -257 346 -219 396 -93 c 0
 409 -61 421 -23 436 20 c 1
 -6 1099 l 1
 274 1099 l 1
 563 302 l 1
 618 504 766 905 829 1099 c 1
 1109 1099 l 1
 1109 1099 652 -109 648 -119 c 0
 552 -368 415 -463 191 -463 c 0
EndSplineSet
EndChar

StartChar: yen
Encoding: 100 165 410
Width: 1194
VWidth: 0
Flags: W
HStem: 0 21G<471 734> 289 153<124 471 734 1085> 583 152<125 392 809 1085> 1439 20G<-44 251.562 946.438 1237>
VStem: -44 284<1175 1459> 471 263<0 289 442 583> 958 279<1180 1459>
DStem2: 240 1459 -44 1459 0.515887 -0.856657<0 698.634> 599 838 809 735 0.50889 0.860832<18.2011 717.268>
LayerCount: 2
Fore
SplineSet
471 0 m 1
 471 289 l 1
 124 289 l 1
 124 442 l 1
 471 442 l 1
 471 583 l 1
 125 583 l 1
 125 735 l 1
 392 735 l 1
 -44 1459 l 1
 240 1459 l 1
 599 838 l 1
 958 1459 l 1
 1237 1459 l 1
 809 735 l 1
 1085 735 l 1
 1085 583 l 1
 734 583 l 1
 734 442 l 1
 1085 442 l 1
 1085 289 l 1
 734 289 l 1
 734 0 l 1
 471 0 l 1
EndSplineSet
EndChar

StartChar: z
Encoding: 90 122 412
Width: 977
VWidth: 0
Flags: W
HStem: 0 191<384 917> 917 182<91 609>
DStem2: 65 159 384 191 0.583062 0.812428<211.994 933.006>
LayerCount: 2
Fore
SplineSet
65 0 m 1
 65 159 l 1
 609 917 l 1
 91 917 l 1
 91 1099 l 1
 899 1099 l 1
 899 920 l 1
 384 191 l 1
 917 191 l 1
 917 0 l 1
 65 0 l 1
EndSplineSet
EndChar

StartChar: zero
Encoding: 16 48 416
Width: 1296
VWidth: 0
Flags: W
HStem: -21 208<521.186 776.436> 1282 208<522.375 775.785>
VStem: 98 271<399.128 1073.64> 927 271<393.173 1072.41>
LayerCount: 2
Fore
SplineSet
649 -21 m 0
 240 -21 98 335 98 732 c 0
 98 1137 245 1490 649 1490 c 0
 1053 1490 1198 1134 1198 732 c 0
 1198 335 1058 -21 649 -21 c 0
649 187 m 0
 871 187 927 461 927 740 c 0
 927 1016 871 1282 649 1282 c 0
 428 1282 371 1017 369 744 c 1
 369 463 426 187 649 187 c 0
EndSplineSet
EndChar

StartChar: fj
Encoding: 413 -1 417
Width: 1331
VWidth: 0
Flags: HW
HStem: 0 21G<203 465 944 1206> 925 174<465 944 1206 1463> 925 154<46 158.538> 1338 195<621.787 750.691 1362.79 1491.69> 1349 203<502.282 750.102 1243.09 1490.97>
VStem: 203 262<0 925 1099 1311.81> 944 262<0 925 1099 1311.81>
LayerCount: 2
Fore
SplineSet
203 0 m 1xc6
 203 925 l 1
 29 925 l 1
 46 1079 l 1xa6
 203 1099 l 1
 203 1160 l 1
 204 1419 292 1552 568 1552 c 0xce
 635 1552 706 1545 772 1533 c 1
 749 1338 l 1x96
 704 1344 658 1349 620 1349 c 0
 507 1349 465 1299 465 1174 c 2
 465 1099 l 1
 1230 1099 l 1xce
 1230 26 l 2
 1230 -282 1165 -427 815 -427 c 2
 756 -427 l 1
 727 -233 l 1
 785 -233 l 2
 949 -233 968 -181 968 -16 c 2
 968 925 l 1xa6
 465 925 l 1
 465 0 l 1
 203 0 l 1xc6
968 1259 m 1
 968 1483 l 1
 1230 1483 l 1
 1230 1259 l 1
 968 1259 l 1
EndSplineSet
EndChar
